<?xml version="1.0" encoding="utf-8"?>
<!-- Generator: Adobe Illustrator 16.0.1, SVG Export Plug-In . SVG Version: 6.00 Build 0)  -->
<!DOCTYPE svg PUBLIC "-//W3C//DTD SVG 1.1//EN" "http://www.w3.org/Graphics/SVG/1.1/DTD/svg11.dtd">
<svg version="1.1" id="Calque_1" xmlns="http://www.w3.org/2000/svg" xmlns:xlink="http://www.w3.org/1999/xlink" x="0px" y="0px"
	 width="684px" height="248px" viewBox="-41 11 684 248" enable-background="new -41 11 684 248" xml:space="preserve">
<rect x="-41" y="11" fill="#FFFFFF" width="684" height="248"/>
<g>
	<path fill="#081F25" d="M287.389,155.9v19.819h-2.559V155.9H287.389z"/>
	<path fill="#081F25" d="M305.1,161.762c1.105,1.152,1.658,2.816,1.658,4.99v8.968h-2.558v-8.743c0-1.536-0.394-2.717-1.181-3.542
		c-0.788-0.824-1.855-1.237-3.205-1.237c-1.406,0-2.53,0.455-3.374,1.364c-0.843,0.909-1.265,2.235-1.265,3.978v8.181h-2.559
		v-15.434h2.559v3.655c0.394-1.256,1.092-2.222,2.095-2.896c1.002-0.674,2.159-1.012,3.472-1.012
		C302.542,160.033,303.994,160.609,305.1,161.762z"/>
	<path fill="#081F25" d="M320.856,161.453c1.059,0.909,1.701,2.132,1.926,3.668h-2.445c-0.112-0.918-0.492-1.672-1.139-2.263
		s-1.514-0.886-2.601-0.886c-0.918,0-1.635,0.221-2.15,0.661s-0.773,1.036-0.773,1.784c0,0.563,0.174,1.018,0.521,1.364
		s0.777,0.609,1.293,0.787c0.516,0.179,1.223,0.37,2.122,0.576c1.144,0.263,2.066,0.53,2.77,0.802s1.303,0.707,1.799,1.307
		c0.497,0.6,0.745,1.406,0.745,2.418c0,1.256-0.474,2.277-1.42,3.064s-2.206,1.18-3.78,1.18c-1.837,0-3.337-0.439-4.498-1.32
		c-1.162-0.881-1.847-2.109-2.053-3.684h2.475c0.093,0.938,0.501,1.697,1.223,2.277c0.721,0.582,1.673,0.871,2.854,0.871
		c0.88,0,1.569-0.225,2.065-0.674c0.497-0.45,0.745-1.041,0.745-1.771c0-0.6-0.178-1.077-0.534-1.434
		c-0.355-0.355-0.797-0.627-1.321-0.815c-0.524-0.187-1.246-0.384-2.164-0.591c-1.144-0.262-2.058-0.523-2.741-0.787
		c-0.685-0.262-1.265-0.678-1.743-1.25c-0.478-0.572-0.717-1.345-0.717-2.32c0-1.293,0.479-2.337,1.434-3.134
		c0.956-0.796,2.259-1.194,3.908-1.194C318.397,160.09,319.798,160.544,320.856,161.453z"/>
	<path fill="#081F25" d="M334.843,173.471v2.249h-1.912c-1.574,0-2.751-0.374-3.528-1.124s-1.166-2.006-1.166-3.768v-8.32h-2.306
		v-2.222h2.306v-3.851h2.586v3.851h3.992v2.222h-3.992v8.377c0,0.993,0.183,1.672,0.548,2.037c0.366,0.366,0.998,0.549,1.897,0.549
		H334.843z"/>
	<path fill="#081F25" d="M339.115,154.621c0.318-0.289,0.74-0.436,1.266-0.436c0.524,0,0.945,0.146,1.265,0.436
		c0.318,0.291,0.478,0.671,0.478,1.139c0,0.469-0.159,0.849-0.478,1.139c-0.319,0.291-0.74,0.436-1.265,0.436
		c-0.525,0-0.947-0.145-1.266-0.436c-0.318-0.29-0.478-0.67-0.478-1.139C338.637,155.292,338.797,154.912,339.115,154.621z
		 M341.645,160.286v15.434h-2.559v-15.434H341.645z"/>
	<path fill="#081F25" d="M354.239,173.471v2.249h-1.912c-1.574,0-2.751-0.374-3.528-1.124s-1.166-2.006-1.166-3.768v-8.32h-2.306
		v-2.222h2.306v-3.851h2.586v3.851h3.992v2.222h-3.992v8.377c0,0.993,0.183,1.672,0.548,2.037c0.366,0.366,0.998,0.549,1.897,0.549
		H354.239z"/>
	<path fill="#081F25" d="M372.202,160.286v15.434h-2.558v-3.626c-0.394,1.256-1.092,2.216-2.095,2.881
		c-1.003,0.666-2.169,0.998-3.5,0.998c-1.78,0-3.224-0.576-4.329-1.729c-1.106-1.152-1.658-2.807-1.658-4.962v-8.996h2.558v8.743
		c0,1.537,0.394,2.723,1.181,3.557s1.855,1.25,3.205,1.25c1.405,0,2.53-0.454,3.373-1.363c0.844-0.908,1.266-2.234,1.266-3.978
		v-8.209H372.202z"/>
	<path fill="#081F25" d="M384.797,173.471v2.249h-1.912c-1.574,0-2.751-0.374-3.528-1.124s-1.166-2.006-1.166-3.768v-8.32h-2.306
		v-2.222h2.306v-3.851h2.586v3.851h3.992v2.222h-3.992v8.377c0,0.993,0.183,1.672,0.548,2.037c0.366,0.366,0.998,0.549,1.897,0.549
		H384.797z"/>
	<path fill="#081F25" d="M399.667,157.98v6.775h7.534v1.969h-7.534v6.915h8.377v2.08h-10.936V155.9h10.936v2.08H399.667z"/>
	<path fill="#081F25" d="M426.176,160.286v15.434h-2.558v-3.626c-0.394,1.256-1.092,2.216-2.095,2.881
		c-1.003,0.666-2.169,0.998-3.5,0.998c-1.78,0-3.224-0.576-4.329-1.729c-1.106-1.152-1.658-2.807-1.658-4.962v-8.996h2.558v8.743
		c0,1.537,0.394,2.723,1.181,3.557s1.855,1.25,3.205,1.25c1.405,0,2.53-0.454,3.373-1.363c0.844-0.908,1.266-2.234,1.266-3.978
		v-8.209H426.176z"/>
	<path fill="#081F25" d="M436.183,160.919c0.975-0.591,2.137-0.886,3.486-0.886v2.783h-0.787c-1.443,0-2.624,0.37-3.542,1.11
		c-0.919,0.741-1.378,1.964-1.378,3.669v8.124h-2.559v-15.434h2.559v3.12C434.469,162.338,435.209,161.51,436.183,160.919z"/>
	<path fill="#081F25" d="M454.302,161.045c1.171,0.638,2.089,1.557,2.755,2.756c0.665,1.199,0.998,2.604,0.998,4.217
		c0,1.611-0.333,3.012-0.998,4.202c-0.666,1.19-1.584,2.104-2.755,2.741c-1.172,0.637-2.498,0.955-3.979,0.955
		s-2.807-0.318-3.978-0.955c-1.172-0.637-2.095-1.551-2.769-2.741c-0.675-1.19-1.013-2.591-1.013-4.202
		c0-1.612,0.338-3.018,1.013-4.217c0.674-1.199,1.597-2.118,2.769-2.756c1.171-0.637,2.497-0.955,3.978-0.955
		S453.13,160.408,454.302,161.045z M447.779,162.957c-0.777,0.412-1.405,1.045-1.884,1.897c-0.478,0.853-0.717,1.907-0.717,3.163
		c0,1.236,0.239,2.281,0.717,3.134c0.479,0.853,1.106,1.485,1.884,1.897s1.626,0.619,2.544,0.619s1.767-0.207,2.545-0.619
		c0.777-0.412,1.405-1.045,1.883-1.897c0.479-0.853,0.717-1.897,0.717-3.134c0-1.256-0.238-2.311-0.717-3.163
		c-0.478-0.853-1.105-1.485-1.883-1.897c-0.778-0.412-1.627-0.619-2.545-0.619S448.556,162.545,447.779,162.957z"/>
	<path fill="#081F25" d="M474.696,161.045c1.068,0.638,1.907,1.557,2.516,2.756c0.609,1.199,0.914,2.604,0.914,4.217
		c0,1.611-0.305,3.012-0.914,4.202c-0.608,1.19-1.447,2.104-2.516,2.741s-2.287,0.955-3.654,0.955c-1.5,0-2.77-0.379-3.81-1.139
		c-1.04-0.758-1.757-1.756-2.15-2.993v11.245h-2.559v-22.743h2.559v3.936c0.394-1.237,1.11-2.235,2.15-2.993
		c1.04-0.76,2.31-1.139,3.81-1.139C472.409,160.09,473.628,160.408,474.696,161.045z M467.612,163.055
		c-0.807,0.46-1.434,1.121-1.884,1.982c-0.449,0.862-0.675,1.855-0.675,2.98c0,1.124,0.226,2.113,0.675,2.965
		c0.45,0.854,1.077,1.514,1.884,1.982c0.806,0.469,1.705,0.703,2.698,0.703c1.593,0,2.863-0.502,3.81-1.504
		c0.946-1.003,1.42-2.385,1.42-4.146s-0.474-3.145-1.42-4.146c-0.946-1.003-2.217-1.504-3.81-1.504
		C469.317,162.367,468.418,162.596,467.612,163.055z"/>
	<path fill="#081F25" d="M496.68,168.551h-12.342c0.057,1.762,0.558,3.084,1.504,3.965s2.104,1.32,3.472,1.32
		c1.237,0,2.272-0.313,3.106-0.941s1.345-1.467,1.532-2.516h2.728c-0.188,1.068-0.604,2.023-1.251,2.867
		c-0.647,0.844-1.486,1.5-2.517,1.968c-1.031,0.469-2.192,0.702-3.485,0.702c-1.481,0-2.793-0.318-3.937-0.955
		c-1.143-0.637-2.038-1.551-2.685-2.741s-0.97-2.591-0.97-4.202c0-1.612,0.323-3.018,0.97-4.217s1.542-2.118,2.685-2.756
		c1.144-0.637,2.455-0.955,3.937-0.955c1.499,0,2.806,0.318,3.921,0.955c1.115,0.638,1.968,1.49,2.559,2.559
		c0.59,1.068,0.886,2.249,0.886,3.542C496.793,167.689,496.755,168.158,496.68,168.551z M493.644,164.447
		c-0.432-0.769-1.022-1.34-1.771-1.715c-0.75-0.375-1.565-0.563-2.445-0.563c-1.406,0-2.587,0.436-3.543,1.307
		c-0.955,0.872-1.471,2.15-1.546,3.838h9.867C494.262,166.172,494.075,165.215,493.644,164.447z M493.953,155.788l-5.987,3.29
		v-1.828l5.987-3.542V155.788z"/>
	<path fill="#081F25" d="M515.346,168.551h-12.342c0.057,1.762,0.558,3.084,1.504,3.965s2.104,1.32,3.472,1.32
		c1.237,0,2.272-0.313,3.106-0.941s1.345-1.467,1.532-2.516h2.728c-0.188,1.068-0.604,2.023-1.251,2.867
		c-0.647,0.844-1.486,1.5-2.517,1.968c-1.031,0.469-2.192,0.702-3.485,0.702c-1.481,0-2.793-0.318-3.937-0.955
		c-1.143-0.637-2.038-1.551-2.685-2.741s-0.97-2.591-0.97-4.202c0-1.612,0.323-3.018,0.97-4.217s1.542-2.118,2.685-2.756
		c1.144-0.637,2.455-0.955,3.937-0.955c1.499,0,2.806,0.318,3.921,0.955c1.115,0.638,1.968,1.49,2.559,2.559
		c0.59,1.068,0.886,2.249,0.886,3.542C515.459,167.689,515.421,168.158,515.346,168.551z M512.31,164.447
		c-0.432-0.769-1.022-1.34-1.771-1.715c-0.75-0.375-1.565-0.563-2.445-0.563c-1.406,0-2.587,0.436-3.543,1.307
		c-0.955,0.872-1.471,2.15-1.546,3.838h9.867C512.928,166.172,512.741,165.215,512.31,164.447z"/>
	<path fill="#081F25" d="M532.41,161.762c1.105,1.152,1.658,2.816,1.658,4.99v8.968h-2.558v-8.743c0-1.536-0.394-2.717-1.181-3.542
		c-0.788-0.824-1.855-1.237-3.205-1.237c-1.406,0-2.53,0.455-3.374,1.364c-0.843,0.909-1.265,2.235-1.265,3.978v8.181h-2.559
		v-15.434h2.559v3.655c0.394-1.256,1.092-2.222,2.095-2.896c1.002-0.674,2.159-1.012,3.472-1.012
		C529.851,160.033,531.303,160.609,532.41,161.762z"/>
	<path fill="#081F25" d="M294.966,194.948c1.04,0.75,1.767,1.753,2.179,3.008v-9.305h2.559v20.803h-2.559v-3.936
		c-0.412,1.256-1.139,2.259-2.179,3.008c-1.04,0.75-2.31,1.124-3.81,1.124c-1.368,0-2.586-0.318-3.654-0.955
		s-1.907-1.551-2.516-2.741c-0.609-1.19-0.914-2.591-0.914-4.202c0-1.612,0.305-3.018,0.914-4.217
		c0.608-1.199,1.447-2.118,2.516-2.756c1.068-0.637,2.286-0.955,3.654-0.955C292.656,193.824,293.926,194.199,294.966,194.948z
		 M288.106,197.605c-0.946,1.002-1.42,2.385-1.42,4.146s0.474,3.144,1.42,4.146c0.946,1.002,2.207,1.504,3.781,1.504
		c1.012,0,1.916-0.234,2.713-0.703c0.796-0.469,1.42-1.129,1.869-1.982c0.45-0.852,0.675-1.841,0.675-2.965
		c0-1.125-0.225-2.118-0.675-2.98c-0.449-0.861-1.073-1.522-1.869-1.982c-0.797-0.459-1.701-0.688-2.713-0.688
		C290.313,196.102,289.052,196.603,288.106,197.605z"/>
	<path fill="#081F25" d="M318.988,202.285h-12.342c0.057,1.762,0.558,3.084,1.504,3.965s2.104,1.32,3.472,1.32
		c1.237,0,2.272-0.313,3.106-0.941s1.345-1.467,1.532-2.516h2.728c-0.188,1.068-0.604,2.023-1.251,2.867
		c-0.647,0.844-1.486,1.5-2.517,1.968c-1.031,0.469-2.192,0.702-3.485,0.702c-1.481,0-2.793-0.318-3.937-0.955
		c-1.143-0.637-2.038-1.551-2.685-2.741s-0.97-2.591-0.97-4.202c0-1.612,0.323-3.018,0.97-4.217s1.542-2.118,2.685-2.756
		c1.144-0.637,2.455-0.955,3.937-0.955c1.499,0,2.806,0.318,3.921,0.955c1.115,0.638,1.968,1.49,2.559,2.559
		c0.59,1.068,0.886,2.249,0.886,3.542C319.1,201.424,319.062,201.893,318.988,202.285z M315.952,198.182
		c-0.432-0.769-1.022-1.34-1.771-1.715c-0.75-0.375-1.565-0.563-2.445-0.563c-1.406,0-2.587,0.436-3.543,1.307
		c-0.955,0.872-1.471,2.15-1.546,3.838h9.867C316.57,199.906,316.383,198.949,315.952,198.182z"/>
	<path fill="#081F25" d="M346.395,191.224c1.574,1.19,2.661,2.815,3.262,4.878h-2.699c-0.506-1.313-1.321-2.357-2.445-3.135
		c-1.125-0.777-2.502-1.167-4.133-1.167c-1.293,0-2.45,0.313-3.472,0.942c-1.021,0.627-1.827,1.527-2.418,2.698
		c-0.59,1.171-0.886,2.544-0.886,4.118c0,1.556,0.296,2.914,0.886,4.076c0.591,1.162,1.396,2.057,2.418,2.686
		c1.021,0.627,2.179,0.941,3.472,0.941c1.631,0,3.008-0.389,4.133-1.167c1.124-0.777,1.939-1.822,2.445-3.134h2.699
		c-0.601,2.061-1.688,3.688-3.262,4.877s-3.569,1.785-5.987,1.785c-1.855,0-3.496-0.426-4.92-1.279
		c-1.424-0.853-2.535-2.043-3.331-3.57c-0.797-1.527-1.194-3.266-1.194-5.215c0-1.968,0.397-3.72,1.194-5.257
		c0.796-1.536,1.907-2.731,3.331-3.585c1.424-0.852,3.064-1.278,4.92-1.278C342.826,189.438,344.821,190.033,346.395,191.224z"/>
	<path fill="#081F25" d="M366.693,195.496c1.105,1.152,1.658,2.816,1.658,4.99v8.968h-2.558v-8.743c0-1.536-0.394-2.717-1.181-3.542
		c-0.788-0.824-1.855-1.237-3.205-1.237c-1.406,0-2.53,0.455-3.374,1.364c-0.843,0.909-1.265,2.235-1.265,3.978v8.181h-2.559
		v-20.803h2.559v9.024c0.394-1.256,1.092-2.222,2.095-2.896c1.002-0.674,2.159-1.012,3.472-1.012
		C364.135,193.768,365.587,194.344,366.693,195.496z"/>
	<path fill="#081F25" d="M373.439,188.355c0.318-0.289,0.74-0.436,1.266-0.436c0.524,0,0.945,0.146,1.265,0.436
		c0.318,0.291,0.478,0.671,0.478,1.139c0,0.469-0.159,0.849-0.478,1.139c-0.319,0.291-0.74,0.436-1.265,0.436
		c-0.525,0-0.947-0.145-1.266-0.436c-0.318-0.29-0.478-0.67-0.478-1.139C372.962,189.026,373.121,188.646,373.439,188.355z
		 M375.969,194.021v15.434h-2.559v-15.434H375.969z"/>
	<path fill="#081F25" d="M404.517,195.496c1.097,1.152,1.645,2.816,1.645,4.99v8.968h-2.559v-8.743c0-1.518-0.37-2.68-1.11-3.485
		s-1.757-1.209-3.05-1.209c-1.35,0-2.432,0.445-3.247,1.335c-0.815,0.891-1.223,2.197-1.223,3.922v8.181h-2.559v-8.743
		c0-1.518-0.375-2.68-1.124-3.485c-0.75-0.806-1.762-1.209-3.036-1.209c-1.368,0-2.46,0.445-3.275,1.335
		c-0.815,0.891-1.223,2.197-1.223,3.922v8.181h-2.559v-15.434h2.559v3.515c0.375-1.219,1.045-2.15,2.01-2.798
		c0.965-0.646,2.076-0.97,3.331-0.97c1.313,0,2.45,0.333,3.416,0.998c0.965,0.666,1.654,1.645,2.066,2.938
		c0.431-1.256,1.152-2.225,2.164-2.91c1.013-0.684,2.155-1.025,3.43-1.025C401.973,193.768,403.421,194.344,404.517,195.496z"/>
	<path fill="#081F25" d="M411.277,188.355c0.318-0.289,0.74-0.436,1.266-0.436c0.524,0,0.945,0.146,1.265,0.436
		c0.318,0.291,0.478,0.671,0.478,1.139c0,0.469-0.159,0.849-0.478,1.139c-0.319,0.291-0.74,0.436-1.265,0.436
		c-0.525,0-0.947-0.145-1.266-0.436c-0.318-0.29-0.478-0.67-0.478-1.139C410.8,189.026,410.959,188.646,411.277,188.355z
		 M413.807,194.021v15.434h-2.559v-15.434H413.807z"/>
	<path fill="#081F25" d="M433.121,202.285h-12.342c0.057,1.762,0.558,3.084,1.504,3.965s2.104,1.32,3.472,1.32
		c1.237,0,2.272-0.313,3.106-0.941s1.345-1.467,1.532-2.516h2.728c-0.188,1.068-0.604,2.023-1.251,2.867
		c-0.647,0.844-1.486,1.5-2.517,1.968c-1.031,0.469-2.192,0.702-3.485,0.702c-1.481,0-2.793-0.318-3.937-0.955
		c-1.143-0.637-2.038-1.551-2.685-2.741s-0.97-2.591-0.97-4.202c0-1.612,0.323-3.018,0.97-4.217s1.542-2.118,2.685-2.756
		c1.144-0.637,2.455-0.955,3.937-0.955c1.499,0,2.806,0.318,3.921,0.955c1.115,0.638,1.968,1.49,2.559,2.559
		c0.59,1.068,0.886,2.249,0.886,3.542C433.233,201.424,433.195,201.893,433.121,202.285z M430.085,198.182
		c-0.432-0.769-1.022-1.34-1.771-1.715c-0.75-0.375-1.565-0.563-2.445-0.563c-1.406,0-2.587,0.436-3.543,1.307
		c-0.955,0.872-1.471,2.15-1.546,3.838h9.867C430.703,199.906,430.515,198.949,430.085,198.182z"/>
	<path fill="#081F25" d="M459.855,202.285h-12.342c0.057,1.762,0.558,3.084,1.504,3.965s2.104,1.32,3.472,1.32
		c1.237,0,2.272-0.313,3.106-0.941s1.345-1.467,1.532-2.516h2.728c-0.188,1.068-0.604,2.023-1.251,2.867
		c-0.647,0.844-1.486,1.5-2.517,1.968c-1.031,0.469-2.192,0.702-3.485,0.702c-1.481,0-2.793-0.318-3.937-0.955
		c-1.143-0.637-2.038-1.551-2.685-2.741s-0.97-2.591-0.97-4.202c0-1.612,0.323-3.018,0.97-4.217s1.542-2.118,2.685-2.756
		c1.144-0.637,2.455-0.955,3.937-0.955c1.499,0,2.806,0.318,3.921,0.955c1.115,0.638,1.968,1.49,2.559,2.559
		c0.59,1.068,0.886,2.249,0.886,3.542C459.968,201.424,459.929,201.893,459.855,202.285z M456.819,198.182
		c-0.432-0.769-1.022-1.34-1.771-1.715c-0.75-0.375-1.565-0.563-2.445-0.563c-1.406,0-2.587,0.436-3.543,1.307
		c-0.955,0.872-1.471,2.15-1.546,3.838h9.867C457.437,199.906,457.25,198.949,456.819,198.182z"/>
	<path fill="#081F25" d="M471.802,207.205v2.249h-1.912c-1.574,0-2.751-0.374-3.528-1.124s-1.166-2.006-1.166-3.768v-8.32h-2.306
		v-2.222h2.306v-3.851h2.586v3.851h3.992v2.222h-3.992v8.377c0,0.993,0.183,1.672,0.548,2.037c0.366,0.366,0.998,0.549,1.897,0.549
		H471.802z"/>
	<path fill="#081F25" d="M496.751,200.936c0.759,0.9,1.139,1.959,1.139,3.178c0,1.611-0.548,2.904-1.645,3.879
		s-2.685,1.462-4.765,1.462h-7.366v-19.819h7.253c1.986,0,3.495,0.441,4.526,1.322c1.03,0.881,1.546,2.09,1.546,3.626
		c0,1.274-0.342,2.306-1.025,3.093c-0.685,0.787-1.561,1.293-2.629,1.518C495.003,199.456,495.992,200.037,496.751,200.936z
		 M486.673,198.322h4.273c1.255,0,2.216-0.291,2.881-0.872s0.998-1.396,0.998-2.446c0-1.012-0.328-1.808-0.983-2.389
		c-0.656-0.581-1.659-0.871-3.009-0.871h-4.16V198.322z M494.136,206.39c0.74-0.618,1.11-1.489,1.11-2.614
		c0-1.105-0.38-1.973-1.139-2.6c-0.759-0.629-1.813-0.942-3.162-0.942h-4.273v7.084h4.329
		C492.351,207.317,493.396,207.008,494.136,206.39z"/>
	<path fill="#081F25" d="M502.247,188.355c0.318-0.289,0.74-0.436,1.266-0.436c0.524,0,0.945,0.146,1.265,0.436
		c0.318,0.291,0.478,0.671,0.478,1.139c0,0.469-0.159,0.849-0.478,1.139c-0.319,0.291-0.74,0.436-1.265,0.436
		c-0.525,0-0.947-0.145-1.266-0.436c-0.318-0.29-0.478-0.67-0.478-1.139C501.769,189.026,501.928,188.646,502.247,188.355z
		 M504.777,194.021v15.434h-2.559v-15.434H504.777z"/>
	<path fill="#081F25" d="M520.983,194.779c1.171,0.638,2.089,1.557,2.755,2.756c0.665,1.199,0.998,2.604,0.998,4.217
		c0,1.611-0.333,3.012-0.998,4.202c-0.666,1.19-1.584,2.104-2.755,2.741c-1.172,0.637-2.498,0.955-3.979,0.955
		s-2.807-0.318-3.978-0.955c-1.172-0.637-2.095-1.551-2.769-2.741c-0.675-1.19-1.013-2.591-1.013-4.202
		c0-1.612,0.338-3.018,1.013-4.217c0.674-1.199,1.597-2.118,2.769-2.756c1.171-0.637,2.497-0.955,3.978-0.955
		S519.811,194.143,520.983,194.779z M514.461,196.691c-0.777,0.412-1.405,1.045-1.884,1.897c-0.478,0.853-0.717,1.907-0.717,3.163
		c0,1.236,0.239,2.281,0.717,3.134c0.479,0.853,1.106,1.485,1.884,1.897s1.626,0.619,2.544,0.619s1.767-0.207,2.545-0.619
		c0.777-0.412,1.405-1.045,1.883-1.897c0.479-0.853,0.717-1.897,0.717-3.134c0-1.256-0.238-2.311-0.717-3.163
		c-0.478-0.853-1.105-1.485-1.883-1.897c-0.778-0.412-1.627-0.619-2.545-0.619S515.238,196.279,514.461,196.691z"/>
	<path fill="#081F25" d="M531.763,188.651v20.803h-2.559v-20.803H531.763z"/>
	<path fill="#081F25" d="M547.97,194.779c1.171,0.638,2.089,1.557,2.755,2.756c0.665,1.199,0.998,2.604,0.998,4.217
		c0,1.611-0.333,3.012-0.998,4.202c-0.666,1.19-1.584,2.104-2.755,2.741c-1.172,0.637-2.498,0.955-3.979,0.955
		s-2.807-0.318-3.978-0.955c-1.172-0.637-2.095-1.551-2.769-2.741c-0.675-1.19-1.013-2.591-1.013-4.202
		c0-1.612,0.338-3.018,1.013-4.217c0.674-1.199,1.597-2.118,2.769-2.756c1.171-0.637,2.497-0.955,3.978-0.955
		S546.799,194.143,547.97,194.779z M541.448,196.691c-0.777,0.412-1.405,1.045-1.884,1.897c-0.478,0.853-0.717,1.907-0.717,3.163
		c0,1.236,0.239,2.281,0.717,3.134c0.479,0.853,1.106,1.485,1.884,1.897s1.626,0.619,2.544,0.619s1.767-0.207,2.545-0.619
		c0.777-0.412,1.405-1.045,1.883-1.897c0.479-0.853,0.717-1.897,0.717-3.134c0-1.256-0.238-2.311-0.717-3.163
		c-0.478-0.853-1.105-1.485-1.883-1.897c-0.778-0.412-1.627-0.619-2.545-0.619S542.225,196.279,541.448,196.691z"/>
	<path fill="#081F25" d="M566.327,194.948c1.04,0.75,1.767,1.753,2.179,3.008v-3.936h2.559v15.687c0,1.424-0.301,2.689-0.9,3.795
		s-1.443,1.969-2.529,2.586c-1.088,0.619-2.353,0.928-3.796,0.928c-2.08,0-3.776-0.501-5.088-1.504
		c-1.313-1.002-2.146-2.356-2.502-4.062h2.53c0.3,1.03,0.866,1.841,1.7,2.432s1.907,0.886,3.219,0.886
		c1.387,0,2.535-0.445,3.444-1.336c0.908-0.891,1.363-2.132,1.363-3.725v-4.188c-0.412,1.256-1.139,2.259-2.179,3.008
		c-1.04,0.75-2.31,1.124-3.81,1.124c-1.368,0-2.586-0.318-3.654-0.955s-1.907-1.551-2.516-2.741
		c-0.609-1.19-0.914-2.591-0.914-4.202c0-1.612,0.305-3.018,0.914-4.217c0.608-1.199,1.447-2.118,2.516-2.756
		c1.068-0.637,2.286-0.955,3.654-0.955C564.017,193.824,565.287,194.199,566.327,194.948z M559.468,197.605
		c-0.946,1.002-1.42,2.385-1.42,4.146s0.474,3.144,1.42,4.146c0.946,1.002,2.207,1.504,3.781,1.504c1.012,0,1.916-0.234,2.713-0.703
		c0.796-0.469,1.42-1.129,1.869-1.982c0.45-0.852,0.675-1.841,0.675-2.965c0-1.125-0.225-2.118-0.675-2.98
		c-0.449-0.861-1.073-1.522-1.869-1.982c-0.797-0.459-1.701-0.688-2.713-0.688C561.675,196.102,560.414,196.603,559.468,197.605z"/>
	<path fill="#081F25" d="M576.293,188.355c0.318-0.289,0.74-0.436,1.266-0.436c0.524,0,0.945,0.146,1.265,0.436
		c0.318,0.291,0.478,0.671,0.478,1.139c0,0.469-0.159,0.849-0.478,1.139c-0.319,0.291-0.74,0.436-1.265,0.436
		c-0.525,0-0.947-0.145-1.266-0.436c-0.318-0.29-0.478-0.67-0.478-1.139C575.815,189.026,575.974,188.646,576.293,188.355z
		 M578.823,194.021v15.434h-2.559v-15.434H578.823z"/>
	<path fill="#081F25" d="M598.136,202.285h-12.342c0.057,1.762,0.558,3.084,1.504,3.965s2.104,1.32,3.472,1.32
		c1.237,0,2.272-0.313,3.106-0.941s1.345-1.467,1.532-2.516h2.728c-0.188,1.068-0.604,2.023-1.251,2.867
		c-0.647,0.844-1.486,1.5-2.517,1.968c-1.031,0.469-2.192,0.702-3.485,0.702c-1.481,0-2.793-0.318-3.937-0.955
		c-1.143-0.637-2.038-1.551-2.685-2.741s-0.97-2.591-0.97-4.202c0-1.612,0.323-3.018,0.97-4.217s1.542-2.118,2.685-2.756
		c1.144-0.637,2.455-0.955,3.937-0.955c1.499,0,2.806,0.318,3.921,0.955c1.115,0.638,1.968,1.49,2.559,2.559
		c0.59,1.068,0.886,2.249,0.886,3.542C598.249,201.424,598.211,201.893,598.136,202.285z M595.1,198.182
		c-0.432-0.769-1.022-1.34-1.771-1.715c-0.75-0.375-1.565-0.563-2.445-0.563c-1.406,0-2.587,0.436-3.543,1.307
		c-0.955,0.872-1.471,2.15-1.546,3.838h9.867C595.719,199.906,595.531,198.949,595.1,198.182z"/>
</g>
<g>
	<path fill="#081F25" d="M25.512,130.811v79.198H9.694v-79.198H25.512z"/>
	<path fill="#081F25" d="M60.175,143.374v20.529h28.045v12.115H60.175v21.313h31.41v12.677H44.356v-79.198h47.229v12.563H60.175z"/>
	<path fill="#081F25" d="M168.089,137.653c6.51,5.087,10.809,12.004,12.902,20.754h-16.602c-1.723-4.263-4.395-7.629-8.023-10.098
		c-3.627-2.468-7.982-3.702-13.066-3.702c-4.191,0-7.965,1.049-11.332,3.142c-3.363,2.096-5.982,5.087-7.852,8.975
		c-1.871,3.89-2.805,8.452-2.805,13.686c0,5.161,0.934,9.687,2.805,13.574c1.869,3.89,4.488,6.882,7.852,8.975
		c3.367,2.094,7.141,3.141,11.332,3.141c5.084,0,9.439-1.234,13.066-3.702c3.629-2.469,6.301-5.833,8.023-10.096h16.602
		c-2.094,8.75-6.393,15.668-12.902,20.753c-6.506,5.087-14.695,7.629-24.564,7.629c-7.555,0-14.23-1.701-20.025-5.105
		c-5.797-3.401-10.283-8.169-13.463-14.302c-3.178-6.131-4.766-13.087-4.766-20.866c0-7.853,1.588-14.844,4.766-20.977
		c3.18-6.132,7.646-10.899,13.406-14.304c5.758-3.402,12.453-5.104,20.082-5.104C153.393,130.025,161.583,132.567,168.089,137.653z"
		/>
	<path fill="#081F25" d="M253.065,175.962c2.879,3.554,4.32,7.724,4.32,12.509c0,6.657-2.227,11.911-6.676,15.762
		c-4.449,3.853-10.9,5.776-19.352,5.776H197.37v-79.198h33.314c8.002,0,14.154,1.757,18.453,5.271
		c4.301,3.517,6.451,8.453,6.451,14.809c0,4.936-1.289,8.975-3.869,12.114c-2.582,3.143-5.965,5.2-10.152,6.171
		C246.352,170.148,250.184,172.412,253.065,175.962z M213.186,164.015h14.246c3.963,0,6.973-0.878,9.031-2.635
		c2.057-1.758,3.084-4.281,3.084-7.573c0-3.289-1.01-5.833-3.029-7.627c-2.018-1.796-5.123-2.693-9.311-2.693h-14.021V164.015z
		 M237.864,194.359c2.244-1.831,3.367-4.504,3.367-8.021c0-3.515-1.141-6.226-3.422-8.134c-2.283-1.905-5.516-2.859-9.703-2.859
		h-14.92v21.763h15.031C232.405,197.108,235.622,196.193,237.864,194.359z"/>
</g>
<g>
	<path fill="#92117D" d="M49.606,11v78.831h-41.2V11H49.606z"/>
	<path fill="#F47920" d="M118.009,11v78.831H76.803V11H118.009z"/>
	<path fill="#8DC63F" d="M186.413,11v78.831h-41.207V11H186.413z"/>
	<path fill="#ED1C24" d="M254.811,11v78.831H213.61V11H254.811z"/>
	<path fill="#0072BC" d="M323.214,11v78.831h-41.205V11H323.214z"/>
	<path fill="#FFC709" d="M391.616,11v78.831h-41.205V11H391.616z"/>
</g>
</svg>
