<?xml version="1.0" encoding="utf-8"?>
<!-- Generator: Adobe Illustrator 16.0.1, SVG Export Plug-In . SVG Version: 6.00 Build 0)  -->
<!DOCTYPE svg PUBLIC "-//W3C//DTD SVG 1.1//EN" "http://www.w3.org/Graphics/SVG/1.1/DTD/svg11.dtd">
<svg version="1.1" id="Logo_1_" xmlns="http://www.w3.org/2000/svg" xmlns:xlink="http://www.w3.org/1999/xlink" x="0px" y="0px"
	 width="540px" height="540px" viewBox="0 0 540 540" enable-background="new 0 0 540 540" xml:space="preserve">
<g id="Fond_Blanc">
	<rect x="2.166" y="0" fill="#FFFFFF" width="540" height="540"/>
</g>
<g id="Calque_3" display="none">
	<circle display="inline" fill="none" stroke="#081F25" stroke-miterlimit="10" cx="237.166" cy="367.5" r="270"/>
</g>
<g id="Logo">
	<g>
		<path fill="#92117D" d="M94.048,250.811v241.188H46.199V250.811H94.048z"/>
		<path fill="#F47920" d="M173.49,341.543v150.454h-47.854V341.543H173.49z"/>
		<path fill="#ED1C24" d="M332.369,341.543v150.454h-47.85V341.543H332.369z"/>
		<path fill="#0072BC" d="M411.81,372.948v119.05h-47.855v-119.05H411.81z"/>
		<path fill="#FFC709" d="M491.253,341.543v150.454h-47.855V341.543H491.253z"/>
		<g>
			<path fill="#081F25" d="M230.424,219.011v90.853h-18.145v-90.853H230.424z"/>
			<path fill="#081F25" d="M270.187,233.423v23.55h32.17v13.897h-32.17v24.45h36.03v14.542h-54.18V219.01h54.18v14.412
				L270.187,233.423L270.187,233.423z"/>
			<path fill="#081F25" d="M393.98,226.86c7.467,5.835,12.398,13.771,14.799,23.81h-19.043c-1.975-4.893-5.041-8.752-9.205-11.586
				c-4.16-2.829-9.153-4.246-14.987-4.246c-4.808,0-9.138,1.203-12.998,3.604c-3.859,2.402-6.865,5.834-9.009,10.294
				c-2.145,4.464-3.219,9.697-3.219,15.7c0,5.919,1.074,11.112,3.219,15.57c2.144,4.462,5.148,7.896,9.009,10.296
				c3.86,2.402,8.19,3.602,12.998,3.602c5.834,0,10.827-1.415,14.987-4.244c4.164-2.833,7.23-6.691,9.205-11.582h19.043
				c-2.399,10.037-7.332,17.974-14.799,23.809c-7.463,5.833-16.859,8.75-28.18,8.75c-8.666,0-16.324-1.952-22.974-5.856
				c-6.649-3.901-11.795-9.369-15.442-16.406c-3.646-7.032-5.468-15.012-5.468-23.937c0-9.009,1.822-17.026,5.468-24.063
				c3.647-7.034,8.771-12.504,15.379-16.41c6.604-3.902,14.285-5.854,23.037-5.854C377.121,218.109,386.517,221.025,393.98,226.86z"
				/>
			<path fill="#081F25" d="M491.462,270.807c3.305,4.076,4.957,8.86,4.957,14.349c0,7.638-2.556,13.664-7.66,18.082
				c-5.104,4.42-12.504,6.626-22.197,6.626h-38.99v-90.853h38.217c9.181,0,16.236,2.015,21.168,6.046
				c4.935,4.035,7.4,9.698,7.4,16.988c0,5.661-1.477,10.296-4.438,13.896c-2.964,3.604-6.847,5.968-11.646,7.079
				C483.761,264.137,488.158,266.735,491.462,270.807z M445.714,257.1h16.344c4.547,0,7.998-1.005,10.358-3.021
				c2.359-2.018,3.541-4.911,3.541-8.688c0-3.771-1.159-6.692-3.479-8.749c-2.313-2.061-5.873-3.09-10.678-3.09h-16.086V257.1
				L445.714,257.1z M474.023,291.911c2.572-2.103,3.863-5.166,3.863-9.202c0-4.03-1.31-7.143-3.928-9.33
				c-2.617-2.187-6.326-3.279-11.13-3.279h-17.116v24.964h17.243C467.76,295.063,471.451,294.015,474.023,291.911z"/>
		</g>
		<path fill="#8DC63F" d="M254.924,357.271v134.727h-47.858V357.271H254.924z"/>
		<path fill="#92117D" d="M96.038,48v170.854h-47.85V48H96.038z"/>
		<path fill="#F47920" d="M175.48,48v261.444h-47.855V48H175.48z"/>
		<path fill="#8DC63F" d="M254.924,48v139.127h-47.858V48H254.924z"/>
		<path fill="#ED1C24" d="M334.359,48v107.77h-47.851V48H334.359z"/>
		<path fill="#0072BC" d="M413.802,48v123.45h-47.854V48H413.802z"/>
		<path fill="#FFC709" d="M493.242,48v139.127h-47.854V48H493.242z"/>
	</g>
</g>
<g id="Typo">
</g>
<g id="Space_Secure" display="none">
	<g display="inline" opacity="0.7">
		<path fill="#D8D8D8" d="M64.308-544.586v20.528h28.044v12.115H64.308v21.313h31.409v12.677H48.49v-79.198h47.229v12.563
			L64.308-544.586L64.308-544.586z"/>
		<path fill="#D8D8D8" d="M-18.155-446.423H2.375v-28.045H14.49v28.045h21.313v-31.41H48.48v47.229h-79.198v-47.229h12.563V-446.423
			z"/>
	</g>
	<g display="inline" opacity="0.7">
		<path fill="#D8D8D8" d="M-18.163-110.255H2.366v-28.044h12.115v28.044h21.313v-31.41h12.678v47.229h-79.198v-47.229h12.563
			L-18.163-110.255L-18.163-110.255z"/>
		<path fill="#D8D8D8" d="M80-27.792v-20.529H51.956v-12.115H80V-81.75H48.59v-12.678h47.229v79.198H48.59v-12.563H80z"/>
	</g>
	<g display="inline" opacity="0.7">
		<path fill="#D8D8D8" d="M1466.747-235.328h20.529v-28.044h12.115v28.044h21.313v-31.41h12.678v47.229h-79.198v-47.229h12.563
			L1466.747-235.328L1466.747-235.328z"/>
	</g>
</g>
</svg>
