<?xml version="1.0" encoding="utf-8"?>
<!-- Generator: Adobe Illustrator 16.0.1, SVG Export Plug-In . SVG Version: 6.00 Build 0)  -->
<!DOCTYPE svg PUBLIC "-//W3C//DTD SVG 1.1//EN" "http://www.w3.org/Graphics/SVG/1.1/DTD/svg11.dtd">
<svg version="1.1" id="Logo" xmlns="http://www.w3.org/2000/svg" xmlns:xlink="http://www.w3.org/1999/xlink" x="0px" y="0px"
	 width="1564px" height="540px" viewBox="0 0 1564 540" enable-background="new 0 0 1564 540" xml:space="preserve">
<rect x="0" y="0" fill="#FFFFFF" width="1564" height="540"/>
<g>
	<path fill="#92117D" d="M120.514,253.5V462h-41.2V253.5H120.514z"/>
	<path fill="#F47920" d="M188.917,331.625V462h-41.205V331.625H188.917z"/>
	<path fill="#ED1C24" d="M325.719,331.625V462h-41.201V331.625H325.719z"/>
	<path fill="#0072BC" d="M394.122,358.666V462h-41.204V358.666H394.122z"/>
	<path fill="#FFC709" d="M462.524,331.625V462h-41.205V331.625H462.524z"/>
	<g>
		<g>
			<path fill="#081F25" d="M236.227,226.452v78.228h-15.625v-78.228H236.227z"/>
			<path fill="#081F25" d="M270.465,238.861v20.277h27.701v11.967h-27.701v21.054h31.024v12.521H254.84v-78.228h46.649v12.408
				L270.465,238.861L270.465,238.861z"/>
			<path fill="#081F25" d="M377.056,233.211c6.429,5.024,10.676,11.856,12.744,20.5h-16.398c-1.702-4.211-4.341-7.535-7.926-9.976
				c-3.582-2.438-7.884-3.655-12.906-3.655c-4.14,0-7.867,1.034-11.191,3.104c-3.322,2.069-5.909,5.023-7.757,8.863
				c-1.848,3.843-2.771,8.35-2.771,13.519c0,5.099,0.923,9.567,2.771,13.407c1.848,3.842,4.435,6.798,7.757,8.865
				c3.324,2.067,7.053,3.102,11.191,3.102c5.022,0,9.324-1.219,12.906-3.655c3.585-2.438,6.224-5.763,7.926-9.974h16.398
				c-2.068,8.645-6.315,15.478-12.744,20.5c-6.427,5.023-14.517,7.535-24.266,7.535c-7.462,0-14.056-1.682-19.778-5.043
				c-5.728-3.36-10.157-8.068-13.299-14.127c-3.14-6.056-4.708-12.926-4.708-20.61c0-7.757,1.568-14.661,4.708-20.72
				c3.142-6.057,7.554-10.766,13.242-14.129c5.688-3.36,12.301-5.041,19.835-5.041C362.541,225.676,370.631,228.187,377.056,233.211
				z"/>
			<path fill="#081F25" d="M460.991,271.051c2.845,3.51,4.269,7.629,4.269,12.354c0,6.575-2.199,11.767-6.596,15.569
				c-4.395,3.805-10.767,5.705-19.113,5.705h-33.571v-78.228h32.906c7.902,0,13.979,1.734,18.227,5.205
				c4.248,3.476,6.372,8.352,6.372,14.629c0,4.873-1.272,8.863-3.821,11.966c-2.551,3.104-5.893,5.137-10.027,6.096
				C454.36,265.309,458.145,267.544,460.991,271.051z M421.6,259.249h14.072c3.914,0,6.888-0.866,8.921-2.604
				c2.029-1.735,3.046-4.229,3.046-7.479c0-3.248-0.998-5.763-2.993-7.533c-1.992-1.773-5.061-2.66-9.196-2.66H421.6V259.249
				L421.6,259.249z M445.976,289.222c2.216-1.809,3.325-4.448,3.325-7.922c0-3.472-1.127-6.149-3.38-8.034
				c-2.256-1.882-5.447-2.824-9.583-2.824H421.6v21.496h14.848C440.584,291.937,443.761,291.032,445.976,289.222z"/>
		</g>
		<path fill="#8DC63F" d="M257.321,345.5V462h-41.207V345.5H257.321z"/>
		<g>
			<path fill="#92117D" d="M120.514,78.666v147.651h-41.2V78.666H120.514z"/>
			<path fill="#F47920" d="M188.917,78.666v225.652h-41.205V78.666H188.917z"/>
			<path fill="#8DC63F" d="M257.321,78.666V199h-41.207V78.666H257.321z"/>
			<path fill="#ED1C24" d="M325.719,78.666V172h-41.201V78.666H325.719z"/>
			<path fill="#0072BC" d="M394.122,78.666V185.5h-41.204V78.666H394.122z"/>
			<path fill="#FFC709" d="M462.524,78.666V199h-41.205V78.666H462.524z"/>
		</g>
	</g>
</g>
<g>
	<path fill="#081F25" d="M541.548,198.844h31.022v5.45h-12.577v38.01h12.577v5.45h-31.022v-5.45h12.577v-38.01h-12.577V198.844
		L541.548,198.844z"/>
	<path fill="#081F25" d="M592.763,247.754h-5.45v-34.656h5.45v5.869h0.838c2.142-4.564,5.869-6.847,11.18-6.847
		c4.006,0,7.196,1.247,9.572,3.737c2.376,2.493,3.563,6.23,3.563,11.214v20.683h-5.449V228.19c0-3.633-0.815-6.357-2.445-8.175
		c-1.631-1.816-3.843-2.725-6.638-2.725c-3.309,0-5.904,1.13-7.791,3.389c-1.888,2.26-2.829,5.275-2.829,9.048V247.754z"/>
	<path fill="#081F25" d="M640.065,222.041c0,1.677,0.71,2.959,2.131,3.843c1.421,0.885,4.019,1.467,7.791,1.747
		c4.053,0.327,7.138,1.292,9.258,2.899c2.119,1.607,3.181,3.948,3.181,7.022v0.419c0,1.677-0.339,3.179-1.015,4.507
		s-1.605,2.458-2.795,3.39c-1.188,0.933-2.632,1.642-4.332,2.131c-1.699,0.488-3.552,0.732-5.555,0.732
		c-2.702,0-5.02-0.36-6.952-1.083c-1.934-0.722-3.54-1.677-4.82-2.864c-1.281-1.188-2.248-2.538-2.899-4.053
		c-0.652-1.513-1.025-3.04-1.118-4.577l5.171-1.258c0.232,2.655,1.258,4.786,3.074,6.395c1.816,1.606,4.238,2.41,7.267,2.41
		c2.563,0,4.622-0.5,6.185-1.503c1.561-1.001,2.341-2.41,2.341-4.228c0-1.956-0.769-3.354-2.306-4.192s-4.029-1.374-7.478-1.606
		c-4.007-0.279-7.081-1.21-9.223-2.795c-2.145-1.583-3.214-3.89-3.214-6.917v-0.419c0-1.63,0.349-3.063,1.048-4.297
		c0.698-1.234,1.642-2.271,2.829-3.109s2.525-1.467,4.019-1.887c1.49-0.419,3.05-0.628,4.682-0.628c2.281,0,4.284,0.313,6.009,0.942
		c1.724,0.629,3.168,1.444,4.332,2.446s2.062,2.155,2.689,3.458c0.629,1.305,1.036,2.609,1.224,3.913l-5.17,1.258
		c-0.234-2.236-1.132-3.982-2.69-5.24c-1.562-1.258-3.599-1.887-6.114-1.887c-0.978,0-1.921,0.105-2.829,0.314
		c-0.907,0.21-1.712,0.523-2.411,0.942c-0.697,0.419-1.258,0.943-1.677,1.572S640.065,221.203,640.065,222.041z"/>
	<path fill="#081F25" d="M677.237,213.098h10.9v-14.254h5.45v14.254h13.415v5.031h-13.415v22.499c0,1.396,0.629,2.096,1.887,2.096
		h9.852v5.031h-11.809c-1.584,0-2.877-0.512-3.878-1.537c-1.002-1.024-1.502-2.329-1.502-3.913V218.13h-10.9V213.098z"/>
	<path fill="#081F25" d="M724.819,242.723h12.158v-24.595h-10.9v-5.031h16.352v29.625h11.317v5.031h-28.927V242.723z
		 M734.741,202.757c0-1.352,0.479-2.503,1.434-3.459c0.954-0.954,2.106-1.433,3.459-1.433c1.35,0,2.503,0.479,3.458,1.433
		c0.953,0.956,1.433,2.107,1.433,3.459s-0.479,2.504-1.433,3.458c-0.955,0.955-2.108,1.432-3.458,1.432
		c-1.353,0-2.505-0.477-3.459-1.432C735.219,205.261,734.741,204.108,734.741,202.757z"/>
	<path fill="#081F25" d="M768.349,213.098h10.9v-14.254h5.449v14.254h13.415v5.031h-13.415v22.499c0,1.396,0.629,2.096,1.888,2.096
		h9.852v5.031H784.63c-1.584,0-2.877-0.512-3.878-1.537c-1.002-1.024-1.502-2.329-1.502-3.913V218.13h-10.9V213.098z"/>
	<path fill="#081F25" d="M839.829,213.098h5.45v34.656h-5.45v-6.289h-0.839c-1.117,2.236-2.585,4.007-4.4,5.311
		c-1.817,1.304-4.123,1.956-6.918,1.956c-1.91,0-3.668-0.313-5.274-0.942c-1.607-0.629-2.982-1.572-4.123-2.83
		c-1.142-1.258-2.026-2.818-2.655-4.682c-0.629-1.862-0.942-4.028-0.942-6.498v-20.682h5.45v19.983c0,3.633,0.744,6.288,2.235,7.965
		c1.49,1.677,3.772,2.515,6.849,2.515c3.307,0,5.902-1.129,7.789-3.389c1.888-2.259,2.83-5.275,2.83-9.048L839.829,213.098
		L839.829,213.098z"/>
	<path fill="#081F25" d="M859.463,213.098h10.899v-14.254h5.45v14.254h13.415v5.031h-13.415v22.499c0,1.396,0.629,2.096,1.887,2.096
		h9.853v5.031h-11.81c-1.584,0-2.877-0.512-3.878-1.537c-1.002-1.024-1.502-2.329-1.502-3.913V218.13h-10.899V213.098z"/>
	<path fill="#081F25" d="M952.253,198.844h29.625v5.45h-23.757v16.21h23.338v5.45h-23.338v16.35h24.176v5.45h-30.044V198.844z"/>
	<path fill="#081F25" d="M1022.053,213.098h5.45v34.656h-5.45v-6.289h-0.839c-1.117,2.236-2.585,4.007-4.401,5.311
		c-1.817,1.304-4.123,1.956-6.918,1.956c-1.91,0-3.668-0.313-5.274-0.942s-2.981-1.572-4.123-2.83s-2.025-2.818-2.654-4.682
		c-0.629-1.862-0.943-4.028-0.943-6.498v-20.682h5.45v19.983c0,3.633,0.745,6.288,2.236,7.965c1.489,1.677,3.771,2.515,6.848,2.515
		c3.307,0,5.903-1.129,7.79-3.389c1.887-2.259,2.83-5.275,2.83-9.048L1022.053,213.098L1022.053,213.098z"/>
	<path fill="#081F25" d="M1040.92,213.098h12.576v4.611h0.84c0.884-1.909,2.142-3.319,3.771-4.228s3.494-1.361,5.59-1.361
		c3.494,0,6.313,1.142,8.455,3.423c2.143,2.283,3.283,5.613,3.423,9.992l-5.729,0.838c0-3.214-0.77-5.531-2.307-6.952
		c-1.536-1.42-3.424-2.131-5.659-2.131c-1.443,0-2.689,0.278-3.737,0.838c-1.048,0.559-1.922,1.328-2.62,2.306
		c-0.698,0.979-1.212,2.12-1.537,3.424c-0.326,1.306-0.489,2.702-0.489,4.192v14.673h8.804v5.031h-22.219v-5.031h7.965v-24.595
		h-7.127V213.098L1040.92,213.098z"/>
	<path fill="#081F25" d="M1121.132,230.845c0,2.889-0.479,5.439-1.433,7.651c-0.956,2.213-2.226,4.075-3.809,5.589
		c-1.584,1.515-3.437,2.667-5.555,3.459c-2.12,0.792-4.321,1.188-6.604,1.188c-2.33,0-4.542-0.396-6.638-1.188
		c-2.098-0.792-3.938-1.944-5.521-3.459c-1.584-1.514-2.854-3.376-3.808-5.589c-0.955-2.212-1.434-4.763-1.434-7.651v-0.839
		c0-2.84,0.479-5.368,1.434-7.581c0.954-2.212,2.236-4.087,3.843-5.625c1.607-1.537,3.459-2.701,5.556-3.494
		c2.097-0.792,4.284-1.188,6.567-1.188c2.281,0,4.472,0.396,6.567,1.188c2.097,0.792,3.947,1.957,5.556,3.494
		c1.606,1.537,2.887,3.413,3.843,5.625c0.954,2.213,1.433,4.741,1.433,7.581v0.839H1121.132z M1103.733,243.562
		c1.677,0,3.226-0.291,4.646-0.874c1.42-0.582,2.666-1.432,3.737-2.55c1.07-1.118,1.909-2.456,2.516-4.018
		c0.604-1.561,0.909-3.319,0.909-5.275v-0.839c0-1.862-0.305-3.574-0.909-5.135c-0.605-1.561-1.444-2.9-2.516-4.019
		s-2.33-1.992-3.772-2.62c-1.444-0.629-2.981-0.942-4.611-0.942c-1.631,0-3.168,0.313-4.61,0.942
		c-1.444,0.628-2.702,1.502-3.773,2.62c-1.072,1.118-1.91,2.458-2.516,4.019s-0.908,3.272-0.908,5.135v0.839
		c0,1.956,0.303,3.715,0.908,5.275c0.604,1.562,1.442,2.899,2.516,4.018c1.071,1.118,2.316,1.969,3.738,2.55
		C1100.508,243.271,1102.056,243.562,1103.733,243.562z"/>
	<path fill="#081F25" d="M1138.18,261.728h-5.45v-48.63h5.45v5.45h0.838c1.211-2.096,2.888-3.691,5.031-4.786
		c2.142-1.094,4.472-1.642,6.986-1.642c2.143,0,4.168,0.396,6.078,1.188s3.6,1.934,5.066,3.424c1.467,1.491,2.631,3.331,3.493,5.521
		c0.86,2.189,1.293,4.681,1.293,7.476v1.397c0,2.842-0.42,5.356-1.258,7.546c-0.84,2.189-1.991,4.03-3.459,5.52
		c-1.468,1.491-3.18,2.62-5.137,3.39c-1.956,0.769-4.029,1.152-6.219,1.152c-1.117,0-2.26-0.128-3.423-0.384
		c-1.165-0.256-2.271-0.652-3.319-1.188s-2.016-1.188-2.898-1.957c-0.887-0.77-1.631-1.688-2.236-2.761h-0.838L1138.18,261.728
		L1138.18,261.728z M1149.779,243.562c1.677,0,3.214-0.291,4.611-0.874c1.396-0.582,2.62-1.408,3.668-2.479s1.861-2.376,2.444-3.913
		c0.582-1.537,0.874-3.26,0.874-5.17v-1.397c0-1.862-0.292-3.551-0.874-5.065c-0.583-1.514-1.396-2.817-2.444-3.913
		c-1.048-1.095-2.282-1.944-3.703-2.551c-1.421-0.604-2.946-0.907-4.576-0.907c-1.632,0-3.145,0.313-4.542,0.942
		c-1.397,0.628-2.62,1.502-3.668,2.62s-1.876,2.458-2.479,4.019c-0.606,1.561-0.908,3.272-0.908,5.135v0.839
		c0,1.91,0.302,3.645,0.908,5.205c0.604,1.562,1.433,2.9,2.479,4.018c1.048,1.118,2.271,1.98,3.668,2.585
		C1146.635,243.259,1148.147,243.562,1149.779,243.562z"/>
	<path fill="#081F25" d="M1183.526,232.103c0.14,3.448,1.211,6.219,3.214,8.315c2.003,2.096,4.797,3.144,8.385,3.144
		c1.631,0,3.052-0.186,4.263-0.559c1.211-0.372,2.247-0.884,3.108-1.537c0.861-0.652,1.562-1.408,2.098-2.271
		c0.535-0.861,0.966-1.781,1.293-2.76l5.17,1.397c-0.979,3.214-2.784,5.834-5.415,7.86c-2.632,2.026-6.185,3.039-10.655,3.039
		c-2.47,0-4.74-0.431-6.813-1.292c-2.073-0.86-3.855-2.084-5.346-3.668c-1.491-1.583-2.654-3.469-3.494-5.659
		c-0.839-2.188-1.258-4.611-1.258-7.267v-1.677c0-2.421,0.432-4.682,1.293-6.777s2.063-3.9,3.6-5.415
		c1.537-1.513,3.342-2.701,5.415-3.563c2.07-0.861,4.318-1.292,6.741-1.292c2.842,0,5.299,0.523,7.371,1.571
		c2.072,1.049,3.773,2.342,5.102,3.878c1.328,1.537,2.307,3.215,2.935,5.031c0.629,1.817,0.943,3.494,0.943,5.031v4.472h-27.949
		V232.103z M1195.125,217.29c-1.536,0-2.97,0.245-4.297,0.732c-1.328,0.489-2.491,1.178-3.494,2.063
		c-1.002,0.885-1.815,1.921-2.444,3.108c-0.629,1.188-1.037,2.48-1.224,3.878h22.359c-0.095-1.489-0.454-2.841-1.083-4.052
		s-1.444-2.235-2.446-3.075c-1.002-0.838-2.143-1.489-3.423-1.956C1197.791,217.523,1196.475,217.29,1195.125,217.29z
		 M1203.439,199.682l-5.869,8.245h-5.03l4.611-8.245H1203.439z"/>
	<path fill="#081F25" d="M1229.084,232.103c0.14,3.448,1.211,6.219,3.214,8.315c2.003,2.096,4.797,3.144,8.385,3.144
		c1.63,0,3.051-0.186,4.262-0.559c1.211-0.372,2.247-0.884,3.109-1.537c0.86-0.652,1.561-1.408,2.097-2.271
		c0.535-0.861,0.966-1.781,1.293-2.76l5.17,1.397c-0.979,3.214-2.784,5.834-5.415,7.86c-2.632,2.026-6.184,3.039-10.655,3.039
		c-2.47,0-4.739-0.431-6.813-1.292c-2.073-0.86-3.855-2.084-5.345-3.668c-1.492-1.583-2.655-3.469-3.494-5.659
		c-0.839-2.188-1.258-4.611-1.258-7.267v-1.677c0-2.421,0.431-4.682,1.293-6.777c0.86-2.096,2.062-3.9,3.599-5.415
		c1.537-1.513,3.342-2.701,5.415-3.563c2.071-0.861,4.319-1.292,6.742-1.292c2.841,0,5.298,0.523,7.371,1.571
		c2.071,1.049,3.772,2.342,5.101,3.878c1.328,1.537,2.307,3.215,2.936,5.031c0.629,1.817,0.942,3.494,0.942,5.031v4.472h-27.948
		V232.103z M1240.681,217.29c-1.537,0-2.97,0.245-4.297,0.732c-1.328,0.489-2.492,1.178-3.494,2.063s-1.816,1.921-2.445,3.108
		c-0.629,1.188-1.037,2.48-1.223,3.878h22.359c-0.096-1.489-0.454-2.841-1.084-4.052c-0.629-1.211-1.443-2.235-2.445-3.075
		c-1.002-0.838-2.144-1.489-3.423-1.956C1243.347,217.523,1242.032,217.29,1240.681,217.29z"/>
	<path fill="#081F25" d="M1276.106,247.754h-5.45v-34.656h5.45v5.869h0.838c2.142-4.564,5.869-6.847,11.181-6.847
		c4.006,0,7.195,1.247,9.571,3.737c2.376,2.493,3.563,6.23,3.563,11.214v20.683h-5.45V228.19c0-3.633-0.815-6.357-2.445-8.175
		c-1.631-1.816-3.843-2.725-6.638-2.725c-3.308,0-5.904,1.13-7.791,3.389c-1.887,2.26-2.829,5.275-2.829,9.048V247.754
		L1276.106,247.754z"/>
	<path fill="#081F25" d="M568.588,326.29h-0.839c-0.56,1.071-1.27,2.003-2.131,2.795c-0.862,0.792-1.794,1.443-2.795,1.956
		c-1.003,0.513-2.062,0.896-3.18,1.152c-1.118,0.256-2.189,0.385-3.214,0.385c-2.33,0-4.496-0.396-6.498-1.188
		c-2.004-0.792-3.763-1.933-5.275-3.424c-1.515-1.49-2.702-3.342-3.563-5.555c-0.862-2.213-1.293-4.739-1.293-7.581v-1.118
		c0-2.795,0.441-5.298,1.328-7.511c0.884-2.213,2.071-4.075,3.563-5.591c1.49-1.513,3.236-2.666,5.24-3.458
		c2.002-0.792,4.122-1.188,6.357-1.188c2.375,0,4.601,0.523,6.674,1.572c2.071,1.048,3.668,2.667,4.785,4.855h0.839v-19.704h5.449
		v48.91h-5.449L568.588,326.29L568.588,326.29z M556.988,327.406c1.63,0,3.146-0.302,4.542-0.907
		c1.397-0.605,2.62-1.468,3.668-2.585c1.048-1.118,1.875-2.456,2.48-4.019c0.604-1.56,0.908-3.295,0.908-5.205v-0.839
		c0-1.862-0.304-3.574-0.908-5.135c-0.605-1.561-1.434-2.9-2.48-4.019c-1.048-1.117-2.282-1.991-3.703-2.619
		c-1.421-0.63-2.924-0.943-4.507-0.943c-1.631,0-3.156,0.303-4.576,0.908c-1.422,0.605-2.654,1.467-3.703,2.585
		c-1.048,1.118-1.863,2.444-2.444,3.981c-0.583,1.537-0.874,3.238-0.874,5.102v1.118c0,1.956,0.291,3.702,0.874,5.239
		c0.581,1.537,1.396,2.854,2.444,3.948c1.049,1.095,2.271,1.935,3.669,2.515C553.774,327.117,555.311,327.406,556.988,327.406z"/>
	<path fill="#081F25" d="M591.297,315.948c0.14,3.448,1.211,6.22,3.214,8.315s4.797,3.144,8.385,3.144
		c1.63,0,3.051-0.186,4.262-0.559c1.211-0.372,2.247-0.884,3.109-1.537c0.861-0.651,1.561-1.408,2.097-2.271
		c0.535-0.862,0.966-1.782,1.293-2.761l5.17,1.397c-0.979,3.214-2.783,5.834-5.415,7.861c-2.632,2.025-6.184,3.039-10.654,3.039
		c-2.471,0-4.74-0.432-6.813-1.292c-2.073-0.861-3.854-2.084-5.345-3.668c-1.492-1.583-2.655-3.47-3.494-5.659
		s-1.258-4.612-1.258-7.268v-1.677c0-2.421,0.431-4.681,1.293-6.777c0.861-2.096,2.062-3.9,3.599-5.415
		c1.537-1.513,3.342-2.7,5.415-3.563c2.071-0.861,4.319-1.292,6.742-1.292c2.841,0,5.298,0.523,7.371,1.572
		c2.072,1.048,3.772,2.341,5.101,3.878s2.308,3.214,2.936,5.03c0.629,1.817,0.942,3.494,0.942,5.031v4.473h-27.948V315.948z
		 M602.894,301.136c-1.537,0-2.97,0.245-4.297,0.733c-1.328,0.488-2.492,1.177-3.494,2.062s-1.816,1.921-2.445,3.109
		c-0.629,1.188-1.037,2.479-1.223,3.878h22.359c-0.096-1.49-0.454-2.841-1.084-4.053c-0.629-1.211-1.443-2.235-2.445-3.074
		c-1.002-0.838-2.144-1.49-3.423-1.956C605.56,301.369,604.245,301.136,602.894,301.136z"/>
	<path fill="#081F25" d="M694.008,327.128c2.002,0,3.714-0.337,5.136-1.014c1.42-0.675,2.585-1.583,3.493-2.725
		c0.908-1.141,1.583-2.445,2.025-3.913c0.442-1.467,0.664-3.016,0.664-4.646v-0.838h5.869v0.838c0,2.469-0.373,4.786-1.118,6.952
		c-0.745,2.165-1.841,4.052-3.284,5.659s-3.236,2.865-5.38,3.773c-2.143,0.908-4.61,1.362-7.405,1.362
		c-5.404,0-9.619-1.7-12.646-5.102c-3.028-3.398-4.542-8.359-4.542-14.882v-10.9c0-6.334,1.514-11.249,4.542-14.742
		c3.027-3.494,7.242-5.24,12.646-5.24c2.795,0,5.264,0.454,7.405,1.361c2.143,0.908,3.937,2.166,5.38,3.773s2.539,3.494,3.284,5.66
		s1.118,4.484,1.118,6.952v0.839h-5.869v-0.839c-0.047-1.583-0.292-3.12-0.732-4.611c-0.443-1.49-1.118-2.806-2.026-3.948
		c-0.908-1.141-2.062-2.049-3.459-2.725c-1.396-0.675-3.099-1.013-5.101-1.013c-3.773,0-6.604,1.375-8.489,4.123
		c-1.887,2.749-2.83,6.357-2.83,10.829v10.063c0,4.798,0.943,8.489,2.83,11.075C687.404,325.835,690.233,327.128,694.008,327.128z"
		/>
	<path fill="#081F25" d="M729.431,331.6h-5.45v-48.91h5.45v20.542h0.838c1.071-2.235,2.573-4.006,4.507-5.311
		c1.933-1.303,4.297-1.956,7.092-1.956c3.773,0,6.836,1.247,9.188,3.738c2.352,2.492,3.527,6.229,3.527,11.214v20.682h-5.449
		v-19.563c0-3.634-0.815-6.358-2.445-8.176c-1.631-1.815-3.843-2.725-6.638-2.725c-3.309,0-5.904,1.13-7.791,3.389
		c-1.888,2.261-2.829,5.275-2.829,9.048V331.6z"/>
	<path fill="#081F25" d="M770.377,326.569h12.157v-24.595h-10.899v-5.031h16.351v29.625h11.318v5.031h-28.927V326.569z
		 M780.299,286.603c0-1.351,0.478-2.503,1.433-3.459c0.954-0.954,2.107-1.432,3.459-1.432c1.35,0,2.503,0.478,3.458,1.432
		c0.954,0.956,1.433,2.108,1.433,3.459c0,1.353-0.479,2.504-1.433,3.458c-0.955,0.955-2.108,1.433-3.458,1.433
		c-1.352,0-2.505-0.478-3.459-1.433C780.775,289.107,780.299,287.954,780.299,286.603z"/>
	<path fill="#081F25" d="M848.424,331.6h-5.449v-24.875c0-1.63-0.374-2.969-1.118-4.018c-0.746-1.048-1.934-1.572-3.563-1.572
		c-1.537,0-2.784,0.571-3.738,1.712c-0.955,1.142-1.433,2.899-1.433,5.275v23.477h-5.45v-25.154c0-1.536-0.419-2.806-1.257-3.808
		c-0.84-1.001-1.957-1.502-3.354-1.502c-1.677,0-2.97,0.606-3.878,1.816c-0.908,1.212-1.362,2.795-1.362,4.751v23.896h-5.45v-34.656
		h5.45v3.773h0.839c0.604-1.63,1.49-2.83,2.655-3.598c1.163-0.77,2.538-1.153,4.122-1.153c1.677,0,3.063,0.442,4.157,1.327
		c1.094,0.886,1.852,2.025,2.271,3.424h0.839c1.583-3.167,4.1-4.751,7.547-4.751c2.607,0,4.622,0.827,6.044,2.479
		c1.421,1.654,2.131,3.809,2.131,6.463V331.6H848.424z"/>
	<path fill="#081F25" d="M861.488,326.569h12.158v-24.595h-10.9v-5.031h16.352v29.625h11.317v5.031h-28.927V326.569z
		 M871.41,286.603c0-1.351,0.479-2.503,1.434-3.459c0.954-0.954,2.106-1.432,3.459-1.432c1.35,0,2.503,0.478,3.458,1.432
		c0.954,0.956,1.433,2.108,1.433,3.459c0,1.353-0.479,2.504-1.433,3.458c-0.955,0.955-2.108,1.433-3.458,1.433
		c-1.353,0-2.505-0.478-3.459-1.433C871.887,289.107,871.41,287.954,871.41,286.603z"/>
	<path fill="#081F25" d="M910.189,315.948c0.14,3.448,1.211,6.22,3.214,8.315s4.797,3.144,8.385,3.144
		c1.63,0,3.052-0.186,4.263-0.559c1.211-0.372,2.247-0.884,3.108-1.537c0.861-0.651,1.562-1.408,2.098-2.271
		c0.534-0.862,0.966-1.782,1.293-2.761l5.17,1.397c-0.979,3.214-2.784,5.834-5.415,7.861c-2.632,2.025-6.185,3.039-10.655,3.039
		c-2.47,0-4.74-0.432-6.813-1.292c-2.073-0.861-3.855-2.084-5.346-3.668c-1.491-1.583-2.654-3.47-3.494-5.659
		c-0.839-2.189-1.258-4.612-1.258-7.268v-1.677c0-2.421,0.432-4.681,1.293-6.777c0.861-2.096,2.063-3.9,3.6-5.415
		c1.537-1.513,3.342-2.7,5.415-3.563c2.07-0.861,4.318-1.292,6.741-1.292c2.842,0,5.299,0.523,7.371,1.572
		c2.072,1.048,3.773,2.341,5.102,3.878s2.307,3.214,2.935,5.03c0.629,1.817,0.943,3.494,0.943,5.031v4.473h-27.949V315.948z
		 M921.788,301.136c-1.536,0-2.97,0.245-4.297,0.733c-1.328,0.488-2.492,1.177-3.494,2.062s-1.815,1.921-2.444,3.109
		c-0.629,1.188-1.037,2.479-1.224,3.878h22.359c-0.095-1.49-0.454-2.841-1.083-4.053c-0.629-1.211-1.444-2.235-2.446-3.074
		c-1.002-0.838-2.143-1.49-3.423-1.956C924.454,301.369,923.138,301.136,921.788,301.136z"/>
	<path fill="#081F25" d="M1001.302,315.948c0.14,3.448,1.211,6.22,3.214,8.315s4.797,3.144,8.385,3.144
		c1.63,0,3.051-0.186,4.262-0.559c1.212-0.372,2.247-0.884,3.109-1.537c0.861-0.651,1.562-1.408,2.097-2.271
		s0.967-1.782,1.293-2.761l5.17,1.397c-0.979,3.214-2.783,5.834-5.414,7.861c-2.633,2.025-6.185,3.039-10.655,3.039
		c-2.47,0-4.74-0.432-6.813-1.292c-2.072-0.861-3.854-2.084-5.345-3.668c-1.492-1.583-2.655-3.47-3.494-5.659
		s-1.258-4.612-1.258-7.268v-1.677c0-2.421,0.431-4.681,1.293-6.777c0.861-2.096,2.063-3.9,3.599-5.415
		c1.537-1.513,3.343-2.7,5.415-3.563c2.071-0.861,4.319-1.292,6.742-1.292c2.841,0,5.298,0.523,7.371,1.572
		c2.072,1.048,3.773,2.341,5.101,3.878c1.328,1.537,2.308,3.214,2.936,5.03c0.629,1.817,0.943,3.494,0.943,5.031v4.473h-27.949
		V315.948z M1012.9,301.136c-1.537,0-2.97,0.245-4.297,0.733c-1.328,0.488-2.492,1.177-3.494,2.062s-1.816,1.921-2.445,3.109
		c-0.629,1.188-1.037,2.479-1.223,3.878h22.359c-0.096-1.49-0.454-2.841-1.083-4.053c-0.63-1.211-1.444-2.235-2.446-3.074
		c-1.002-0.838-2.143-1.49-3.423-1.956C1015.566,301.369,1014.252,301.136,1012.9,301.136z"/>
	<path fill="#081F25" d="M1041.687,296.943h10.9v-14.254h5.449v14.254h13.415v5.031h-13.415v22.499c0,1.397,0.629,2.096,1.888,2.096
		h9.852v5.031h-11.809c-1.584,0-2.877-0.512-3.878-1.537c-1.002-1.023-1.502-2.329-1.502-3.913v-24.175h-10.9V296.943z"/>
	<path fill="#081F25" d="M1131.891,326.149h4.192v-38.01h-4.192v-5.45h19.772c2.329,0,4.392,0.327,6.186,0.979
		c1.792,0.652,3.307,1.538,4.541,2.654c1.232,1.118,2.166,2.458,2.795,4.019c0.629,1.562,0.943,3.249,0.943,5.065v0.839
		c0,1.352-0.21,2.585-0.629,3.702c-0.42,1.118-1.002,2.12-1.747,3.005c-0.745,0.886-1.619,1.642-2.62,2.271
		c-1.002,0.629-2.085,1.107-3.249,1.432v0.84c2.329,0.652,4.285,1.897,5.869,3.737c1.583,1.841,2.376,4.087,2.376,6.743v0.838
		c0,1.817-0.314,3.506-0.943,5.066s-1.563,2.912-2.795,4.052c-1.234,1.142-2.749,2.039-4.541,2.69
		c-1.794,0.652-3.855,0.978-6.186,0.978h-19.772V326.149z M1141.953,304.35h9.504c2.795,0,5.007-0.722,6.638-2.166
		c1.63-1.442,2.444-3.424,2.444-5.938v-0.419c0-2.375-0.861-4.25-2.585-5.625c-1.724-1.374-3.96-2.062-6.708-2.062h-9.293V304.35z
		 M1141.953,326.149h9.293c2.748,0,4.984-0.687,6.708-2.061s2.585-3.272,2.585-5.694v-0.419c0-2.515-0.814-4.507-2.444-5.974
		c-1.631-1.467-3.843-2.201-6.638-2.201h-9.504V326.149z"/>
	<path fill="#081F25" d="M1180.383,326.569h12.157v-24.595h-10.899v-5.031h16.351v29.625h11.318v5.031h-28.927V326.569
		L1180.383,326.569z M1190.303,286.603c0-1.351,0.478-2.503,1.433-3.459c0.954-0.954,2.107-1.432,3.459-1.432
		c1.35,0,2.503,0.478,3.458,1.432c0.954,0.956,1.433,2.108,1.433,3.459c0,1.353-0.479,2.504-1.433,3.458
		c-0.955,0.955-2.108,1.433-3.458,1.433c-1.352,0-2.505-0.478-3.459-1.433C1190.781,289.107,1190.303,287.954,1190.303,286.603z"/>
	<path fill="#081F25" d="M1257.801,314.691c0,2.89-0.479,5.439-1.433,7.651c-0.956,2.213-2.226,4.076-3.809,5.589
		c-1.584,1.515-3.437,2.667-5.556,3.459s-4.32,1.188-6.603,1.188c-2.33,0-4.542-0.396-6.638-1.188
		c-2.098-0.792-3.938-1.944-5.521-3.459c-1.584-1.513-2.854-3.376-3.808-5.589c-0.955-2.212-1.433-4.762-1.433-7.651v-0.839
		c0-2.84,0.478-5.368,1.433-7.581c0.954-2.212,2.235-4.087,3.843-5.625c1.607-1.537,3.459-2.701,5.555-3.494
		c2.098-0.792,4.285-1.188,6.568-1.188c2.281,0,4.473,0.396,6.567,1.188c2.097,0.792,3.948,1.957,5.556,3.494
		c1.606,1.537,2.887,3.413,3.843,5.625c0.954,2.213,1.433,4.741,1.433,7.581v0.839H1257.801z M1240.402,327.406
		c1.677,0,3.225-0.291,4.646-0.873c1.42-0.582,2.666-1.433,3.737-2.551c1.07-1.118,1.909-2.456,2.516-4.018
		c0.604-1.561,0.909-3.319,0.909-5.275v-0.839c0-1.862-0.305-3.574-0.909-5.135c-0.605-1.561-1.444-2.9-2.516-4.019
		c-1.071-1.117-2.329-1.991-3.772-2.619c-1.444-0.63-2.981-0.943-4.611-0.943c-1.631,0-3.168,0.313-4.61,0.943
		c-1.444,0.628-2.702,1.502-3.773,2.619c-1.072,1.118-1.91,2.458-2.516,4.019s-0.908,3.272-0.908,5.135v0.839
		c0,1.956,0.303,3.715,0.908,5.275c0.604,1.562,1.442,2.899,2.516,4.018c1.071,1.118,2.316,1.97,3.738,2.551
		C1237.177,327.117,1238.725,327.406,1240.402,327.406z"/>
	<path fill="#081F25" d="M1270.656,326.569h12.576V287.72h-12.157v-5.031h17.607v43.879h12.577v5.031h-30.604L1270.656,326.569
		L1270.656,326.569z"/>
	<path fill="#081F25" d="M1348.912,314.691c0,2.89-0.478,5.439-1.432,7.651c-0.956,2.213-2.226,4.076-3.809,5.589
		c-1.584,1.515-3.437,2.667-5.556,3.459c-2.12,0.792-4.321,1.188-6.603,1.188c-2.33,0-4.542-0.396-6.639-1.188
		s-3.938-1.944-5.521-3.459c-1.584-1.513-2.854-3.376-3.808-5.589c-0.955-2.212-1.434-4.762-1.434-7.651v-0.839
		c0-2.84,0.479-5.368,1.434-7.581c0.953-2.212,2.235-4.087,3.843-5.625c1.606-1.537,3.459-2.701,5.555-3.494
		c2.098-0.792,4.285-1.188,6.568-1.188c2.281,0,4.472,0.396,6.567,1.188c2.097,0.792,3.947,1.957,5.556,3.494
		c1.605,1.537,2.887,3.413,3.843,5.625c0.954,2.213,1.432,4.741,1.432,7.581v0.839H1348.912z M1331.514,327.406
		c1.677,0,3.225-0.291,4.646-0.873c1.42-0.582,2.666-1.433,3.738-2.551c1.07-1.118,1.909-2.456,2.516-4.018
		c0.604-1.561,0.908-3.319,0.908-5.275v-0.839c0-1.862-0.304-3.574-0.908-5.135c-0.605-1.561-1.444-2.9-2.516-4.019
		c-1.072-1.117-2.33-1.991-3.772-2.619c-1.444-0.63-2.981-0.943-4.611-0.943c-1.631,0-3.168,0.313-4.611,0.943
		c-1.443,0.628-2.702,1.502-3.772,2.619c-1.072,1.118-1.91,2.458-2.516,4.019s-0.908,3.272-0.908,5.135v0.839
		c0,1.956,0.303,3.715,0.908,5.275c0.604,1.562,1.442,2.899,2.516,4.018c1.071,1.118,2.316,1.97,3.738,2.551
		C1328.288,327.117,1329.839,327.406,1331.514,327.406z"/>
	<path fill="#081F25" d="M1388.111,326.29h-0.839c-1.118,2.096-2.646,3.668-4.576,4.716c-1.934,1.048-4.042,1.572-6.324,1.572
		c-2.329,0-4.519-0.396-6.566-1.188c-2.052-0.792-3.855-1.933-5.415-3.424c-1.563-1.49-2.795-3.342-3.703-5.555
		s-1.362-4.739-1.362-7.581v-1.118c0-2.795,0.465-5.298,1.396-7.511s2.166-4.075,3.704-5.591c1.536-1.513,3.328-2.666,5.38-3.458
		c2.049-0.792,4.191-1.188,6.428-1.188c2.516,0,4.717,0.548,6.604,1.642c1.887,1.096,3.364,2.69,4.438,4.786h0.839v-5.45h5.449
		v43.182c0,1.583-0.501,2.888-1.502,3.913c-1.002,1.023-2.295,1.537-3.878,1.537h-22.568v-5.031h20.612
		c1.258,0,1.887-0.699,1.887-2.097V326.29H1388.111z M1376.511,327.406c1.631,0,3.145-0.302,4.542-0.907
		c1.396-0.605,2.62-1.468,3.668-2.585c1.049-1.118,1.875-2.456,2.479-4.019c0.605-1.56,0.909-3.295,0.909-5.205v-0.839
		c0-1.862-0.304-3.574-0.909-5.135c-0.604-1.561-1.432-2.9-2.479-4.019c-1.048-1.117-2.282-1.991-3.703-2.619
		c-1.421-0.63-2.924-0.943-4.507-0.943c-1.631,0-3.156,0.303-4.576,0.908c-1.422,0.605-2.655,1.467-3.703,2.585
		s-1.863,2.444-2.445,3.981c-0.583,1.537-0.874,3.238-0.874,5.102v1.118c0,1.956,0.291,3.702,0.874,5.239
		c0.582,1.537,1.397,2.854,2.445,3.948c1.048,1.095,2.271,1.935,3.668,2.515C1373.299,327.117,1374.836,327.406,1376.511,327.406z"
		/>
	<path fill="#081F25" d="M1408.163,326.569h12.158v-24.595h-10.899v-5.031h16.351v29.625h11.317v5.031h-28.927V326.569
		L1408.163,326.569z M1418.086,286.603c0-1.351,0.478-2.503,1.433-3.459c0.954-0.954,2.106-1.432,3.459-1.432
		c1.35,0,2.503,0.478,3.458,1.432c0.954,0.956,1.433,2.108,1.433,3.459c0,1.353-0.479,2.504-1.433,3.458
		c-0.955,0.955-2.108,1.433-3.458,1.433c-1.353,0-2.505-0.478-3.459-1.433C1418.562,289.107,1418.086,287.954,1418.086,286.603z"/>
	<path fill="#081F25" d="M1456.864,315.948c0.141,3.448,1.211,6.22,3.214,8.315s4.797,3.144,8.386,3.144
		c1.63,0,3.051-0.186,4.262-0.559c1.211-0.372,2.247-0.884,3.108-1.537c0.861-0.651,1.562-1.408,2.098-2.271
		c0.535-0.862,0.966-1.782,1.293-2.761l5.17,1.397c-0.979,3.214-2.784,5.834-5.415,7.861c-2.632,2.025-6.184,3.039-10.655,3.039
		c-2.47,0-4.74-0.432-6.813-1.292c-2.073-0.861-3.855-2.084-5.346-3.668c-1.491-1.583-2.654-3.47-3.493-5.659
		s-1.259-4.612-1.259-7.268v-1.677c0-2.421,0.432-4.681,1.293-6.777c0.861-2.096,2.063-3.9,3.6-5.415
		c1.537-1.513,3.342-2.7,5.415-3.563c2.071-0.861,4.318-1.292,6.741-1.292c2.842,0,5.299,0.523,7.371,1.572
		c2.072,1.048,3.773,2.341,5.102,3.878s2.307,3.214,2.935,5.03c0.629,1.817,0.943,3.494,0.943,5.031v4.473h-27.949V315.948z
		 M1468.464,301.136c-1.537,0-2.971,0.245-4.298,0.733s-2.491,1.177-3.493,2.062s-1.816,1.921-2.445,3.109
		c-0.629,1.188-1.037,2.479-1.223,3.878h22.358c-0.095-1.49-0.454-2.841-1.083-4.053c-0.629-1.211-1.443-2.235-2.446-3.074
		c-1.002-0.838-2.143-1.49-3.423-1.956C1471.13,301.369,1469.813,301.136,1468.464,301.136z"/>
</g>
</svg>
