<?xml version="1.0" encoding="utf-8"?>
<!-- Generator: Adobe Illustrator 16.0.1, SVG Export Plug-In . SVG Version: 6.00 Build 0)  -->
<!DOCTYPE svg PUBLIC "-//W3C//DTD SVG 1.1//EN" "http://www.w3.org/Graphics/SVG/1.1/DTD/svg11.dtd">
<svg version="1.1" id="Calque_1" xmlns="http://www.w3.org/2000/svg" xmlns:xlink="http://www.w3.org/1999/xlink" x="0px" y="0px"
	 width="602px" height="270px" viewBox="0 0 602 270" enable-background="new 0 0 602 270" xml:space="preserve">
<rect y="1" fill="#FFFFFF" width="602" height="270"/>
<g>
	<path fill="#081F25" d="M240.642,167.4v19.819h-2.559V167.4H240.642z"/>
	<path fill="#081F25" d="M258.353,173.262c1.105,1.152,1.658,2.816,1.658,4.99v8.968h-2.558v-8.743c0-1.536-0.394-2.717-1.181-3.542
		c-0.788-0.824-1.855-1.237-3.205-1.237c-1.406,0-2.53,0.455-3.374,1.364c-0.843,0.909-1.265,2.235-1.265,3.978v8.181h-2.559
		v-15.434h2.559v3.655c0.394-1.256,1.092-2.222,2.095-2.896c1.002-0.674,2.159-1.012,3.472-1.012
		C255.794,171.533,257.246,172.109,258.353,173.262z"/>
	<path fill="#081F25" d="M274.108,172.953c1.059,0.909,1.701,2.132,1.926,3.668h-2.445c-0.112-0.918-0.492-1.672-1.139-2.263
		s-1.514-0.886-2.601-0.886c-0.918,0-1.635,0.221-2.15,0.661s-0.773,1.036-0.773,1.784c0,0.563,0.174,1.018,0.521,1.364
		s0.777,0.609,1.293,0.787c0.516,0.179,1.223,0.37,2.122,0.576c1.144,0.263,2.066,0.53,2.77,0.802s1.303,0.707,1.799,1.307
		c0.497,0.6,0.745,1.406,0.745,2.418c0,1.256-0.474,2.277-1.42,3.064s-2.206,1.18-3.78,1.18c-1.837,0-3.337-0.439-4.498-1.32
		c-1.162-0.881-1.847-2.109-2.053-3.684h2.475c0.093,0.938,0.501,1.697,1.223,2.277c0.721,0.582,1.673,0.871,2.854,0.871
		c0.88,0,1.569-0.225,2.065-0.674c0.497-0.45,0.745-1.041,0.745-1.771c0-0.6-0.178-1.077-0.534-1.434
		c-0.355-0.355-0.797-0.627-1.321-0.815c-0.524-0.187-1.246-0.384-2.164-0.591c-1.144-0.262-2.058-0.523-2.741-0.787
		c-0.685-0.262-1.265-0.678-1.743-1.25c-0.478-0.572-0.717-1.345-0.717-2.32c0-1.293,0.479-2.337,1.434-3.134
		c0.956-0.796,2.259-1.194,3.908-1.194C271.649,171.59,273.05,172.044,274.108,172.953z"/>
	<path fill="#081F25" d="M288.095,184.971v2.249h-1.912c-1.574,0-2.751-0.374-3.528-1.124s-1.166-2.006-1.166-3.768v-8.32h-2.306
		v-2.222h2.306v-3.851h2.586v3.851h3.992v2.222h-3.992v8.377c0,0.993,0.183,1.672,0.548,2.037c0.366,0.366,0.998,0.549,1.897,0.549
		H288.095z"/>
	<path fill="#081F25" d="M292.367,166.121c0.318-0.289,0.74-0.436,1.266-0.436c0.524,0,0.945,0.146,1.265,0.436
		c0.318,0.291,0.478,0.671,0.478,1.139c0,0.469-0.159,0.849-0.478,1.139c-0.319,0.291-0.74,0.436-1.265,0.436
		c-0.525,0-0.947-0.145-1.266-0.436c-0.318-0.29-0.478-0.67-0.478-1.139C291.89,166.792,292.049,166.412,292.367,166.121z
		 M294.897,171.786v15.434h-2.559v-15.434H294.897z"/>
	<path fill="#081F25" d="M307.491,184.971v2.249h-1.912c-1.574,0-2.751-0.374-3.528-1.124s-1.166-2.006-1.166-3.768v-8.32h-2.306
		v-2.222h2.306v-3.851h2.586v3.851h3.992v2.222h-3.992v8.377c0,0.993,0.183,1.672,0.548,2.037c0.366,0.366,0.998,0.549,1.897,0.549
		H307.491z"/>
	<path fill="#081F25" d="M325.454,171.786v15.434h-2.558v-3.626c-0.394,1.256-1.092,2.216-2.095,2.881
		c-1.003,0.666-2.169,0.998-3.5,0.998c-1.78,0-3.224-0.576-4.329-1.729c-1.106-1.152-1.658-2.807-1.658-4.962v-8.996h2.558v8.743
		c0,1.537,0.394,2.723,1.181,3.557s1.855,1.25,3.205,1.25c1.405,0,2.53-0.454,3.373-1.363c0.844-0.908,1.266-2.234,1.266-3.978
		v-8.209H325.454z"/>
	<path fill="#081F25" d="M338.049,184.971v2.249h-1.912c-1.574,0-2.751-0.374-3.528-1.124s-1.166-2.006-1.166-3.768v-8.32h-2.306
		v-2.222h2.306v-3.851h2.586v3.851h3.992v2.222h-3.992v8.377c0,0.993,0.183,1.672,0.548,2.037c0.366,0.366,0.998,0.549,1.897,0.549
		H338.049z"/>
	<path fill="#081F25" d="M352.919,169.48v6.775h7.534v1.969h-7.534v6.915h8.377v2.08H350.36V167.4h10.936v2.08H352.919z"/>
	<path fill="#081F25" d="M379.428,171.786v15.434h-2.558v-3.626c-0.394,1.256-1.092,2.216-2.095,2.881
		c-1.003,0.666-2.169,0.998-3.5,0.998c-1.78,0-3.224-0.576-4.329-1.729c-1.106-1.152-1.658-2.807-1.658-4.962v-8.996h2.558v8.743
		c0,1.537,0.394,2.723,1.181,3.557s1.855,1.25,3.205,1.25c1.405,0,2.53-0.454,3.373-1.363c0.844-0.908,1.266-2.234,1.266-3.978
		v-8.209H379.428z"/>
	<path fill="#081F25" d="M389.436,172.419c0.975-0.591,2.137-0.886,3.486-0.886v2.783h-0.787c-1.443,0-2.624,0.37-3.542,1.11
		c-0.919,0.741-1.378,1.964-1.378,3.669v8.124h-2.559v-15.434h2.559v3.12C387.721,173.838,388.461,173.01,389.436,172.419z"/>
	<path fill="#081F25" d="M407.554,172.545c1.171,0.638,2.089,1.557,2.755,2.756c0.665,1.199,0.998,2.604,0.998,4.217
		c0,1.611-0.333,3.012-0.998,4.202c-0.666,1.19-1.584,2.104-2.755,2.741c-1.172,0.637-2.498,0.955-3.979,0.955
		s-2.807-0.318-3.978-0.955c-1.172-0.637-2.095-1.551-2.769-2.741c-0.675-1.19-1.013-2.591-1.013-4.202
		c0-1.612,0.338-3.018,1.013-4.217c0.674-1.199,1.597-2.118,2.769-2.756c1.171-0.637,2.497-0.955,3.978-0.955
		S406.382,171.908,407.554,172.545z M401.031,174.457c-0.777,0.412-1.405,1.045-1.884,1.897c-0.478,0.853-0.717,1.907-0.717,3.163
		c0,1.236,0.239,2.281,0.717,3.134c0.479,0.853,1.106,1.485,1.884,1.897s1.626,0.619,2.544,0.619s1.767-0.207,2.545-0.619
		c0.777-0.412,1.405-1.045,1.883-1.897c0.479-0.853,0.717-1.897,0.717-3.134c0-1.256-0.238-2.311-0.717-3.163
		c-0.478-0.853-1.105-1.485-1.883-1.897c-0.778-0.412-1.627-0.619-2.545-0.619S401.809,174.045,401.031,174.457z"/>
	<path fill="#081F25" d="M427.948,172.545c1.068,0.638,1.907,1.557,2.516,2.756c0.609,1.199,0.914,2.604,0.914,4.217
		c0,1.611-0.305,3.012-0.914,4.202c-0.608,1.19-1.447,2.104-2.516,2.741s-2.287,0.955-3.654,0.955c-1.5,0-2.77-0.379-3.81-1.139
		c-1.04-0.758-1.757-1.756-2.15-2.993v11.245h-2.559v-22.743h2.559v3.936c0.394-1.237,1.11-2.235,2.15-2.993
		c1.04-0.76,2.31-1.139,3.81-1.139C425.661,171.59,426.88,171.908,427.948,172.545z M420.864,174.555
		c-0.807,0.46-1.434,1.121-1.884,1.982c-0.449,0.862-0.675,1.855-0.675,2.98c0,1.124,0.226,2.113,0.675,2.965
		c0.45,0.854,1.077,1.514,1.884,1.982c0.806,0.469,1.705,0.703,2.698,0.703c1.593,0,2.863-0.502,3.81-1.504
		c0.946-1.003,1.42-2.385,1.42-4.146s-0.474-3.145-1.42-4.146c-0.946-1.003-2.217-1.504-3.81-1.504
		C422.569,173.867,421.67,174.096,420.864,174.555z"/>
	<path fill="#081F25" d="M449.933,180.051h-12.342c0.057,1.762,0.558,3.084,1.504,3.965s2.104,1.32,3.472,1.32
		c1.237,0,2.272-0.313,3.106-0.941s1.345-1.467,1.532-2.516h2.728c-0.188,1.068-0.604,2.023-1.251,2.867
		c-0.647,0.844-1.486,1.5-2.517,1.968c-1.031,0.469-2.192,0.702-3.485,0.702c-1.481,0-2.793-0.318-3.937-0.955
		c-1.143-0.637-2.038-1.551-2.685-2.741s-0.97-2.591-0.97-4.202c0-1.612,0.323-3.018,0.97-4.217s1.542-2.118,2.685-2.756
		c1.144-0.637,2.455-0.955,3.937-0.955c1.499,0,2.806,0.318,3.921,0.955c1.115,0.638,1.968,1.49,2.559,2.559
		c0.59,1.068,0.886,2.249,0.886,3.542C450.045,179.189,450.007,179.658,449.933,180.051z M446.896,175.947
		c-0.432-0.769-1.022-1.34-1.771-1.715c-0.75-0.375-1.565-0.563-2.445-0.563c-1.406,0-2.587,0.436-3.543,1.307
		c-0.955,0.872-1.471,2.15-1.546,3.838h9.867C447.515,177.672,447.327,176.715,446.896,175.947z M447.205,167.288l-5.987,3.29
		v-1.828l5.987-3.542V167.288z"/>
	<path fill="#081F25" d="M468.599,180.051h-12.342c0.057,1.762,0.558,3.084,1.504,3.965s2.104,1.32,3.472,1.32
		c1.237,0,2.272-0.313,3.106-0.941s1.345-1.467,1.532-2.516h2.728c-0.188,1.068-0.604,2.023-1.251,2.867
		c-0.647,0.844-1.486,1.5-2.517,1.968c-1.031,0.469-2.192,0.702-3.485,0.702c-1.481,0-2.793-0.318-3.937-0.955
		c-1.143-0.637-2.038-1.551-2.685-2.741s-0.97-2.591-0.97-4.202c0-1.612,0.323-3.018,0.97-4.217s1.542-2.118,2.685-2.756
		c1.144-0.637,2.455-0.955,3.937-0.955c1.499,0,2.806,0.318,3.921,0.955c1.115,0.638,1.968,1.49,2.559,2.559
		c0.59,1.068,0.886,2.249,0.886,3.542C468.711,179.189,468.673,179.658,468.599,180.051z M465.563,175.947
		c-0.432-0.769-1.022-1.34-1.771-1.715c-0.75-0.375-1.565-0.563-2.445-0.563c-1.406,0-2.587,0.436-3.543,1.307
		c-0.955,0.872-1.471,2.15-1.546,3.838h9.867C466.181,177.672,465.993,176.715,465.563,175.947z"/>
	<path fill="#081F25" d="M485.662,173.262c1.105,1.152,1.658,2.816,1.658,4.99v8.968h-2.558v-8.743c0-1.536-0.394-2.717-1.181-3.542
		c-0.788-0.824-1.855-1.237-3.205-1.237c-1.406,0-2.53,0.455-3.374,1.364c-0.843,0.909-1.265,2.235-1.265,3.978v8.181h-2.559
		v-15.434h2.559v3.655c0.394-1.256,1.092-2.222,2.095-2.896c1.002-0.674,2.159-1.012,3.472-1.012
		C483.104,171.533,484.556,172.109,485.662,173.262z"/>
	<path fill="#081F25" d="M248.218,206.448c1.04,0.75,1.767,1.753,2.179,3.008v-9.305h2.559v20.803h-2.559v-3.936
		c-0.412,1.256-1.139,2.259-2.179,3.008c-1.04,0.75-2.31,1.124-3.81,1.124c-1.368,0-2.586-0.318-3.654-0.955
		s-1.907-1.551-2.516-2.741c-0.609-1.19-0.914-2.591-0.914-4.202c0-1.612,0.305-3.018,0.914-4.217
		c0.608-1.199,1.447-2.118,2.516-2.756c1.068-0.637,2.286-0.955,3.654-0.955C245.908,205.324,247.178,205.699,248.218,206.448z
		 M241.358,209.105c-0.946,1.002-1.42,2.385-1.42,4.146s0.474,3.144,1.42,4.146c0.946,1.002,2.207,1.504,3.781,1.504
		c1.012,0,1.916-0.234,2.713-0.703c0.796-0.469,1.42-1.129,1.869-1.982c0.45-0.852,0.675-1.841,0.675-2.965
		c0-1.125-0.225-2.118-0.675-2.98c-0.449-0.861-1.073-1.522-1.869-1.982c-0.797-0.459-1.701-0.688-2.713-0.688
		C243.565,207.602,242.305,208.103,241.358,209.105z"/>
	<path fill="#081F25" d="M272.24,213.785h-12.342c0.057,1.762,0.558,3.084,1.504,3.965s2.104,1.32,3.472,1.32
		c1.237,0,2.272-0.313,3.106-0.941s1.345-1.467,1.532-2.516h2.728c-0.188,1.068-0.604,2.023-1.251,2.867
		c-0.647,0.844-1.486,1.5-2.517,1.968c-1.031,0.469-2.192,0.702-3.485,0.702c-1.481,0-2.793-0.318-3.937-0.955
		c-1.143-0.637-2.038-1.551-2.685-2.741s-0.97-2.591-0.97-4.202c0-1.612,0.323-3.018,0.97-4.217s1.542-2.118,2.685-2.756
		c1.144-0.637,2.455-0.955,3.937-0.955c1.499,0,2.806,0.318,3.921,0.955c1.115,0.638,1.968,1.49,2.559,2.559
		c0.59,1.068,0.886,2.249,0.886,3.542C272.353,212.924,272.314,213.393,272.24,213.785z M269.204,209.682
		c-0.432-0.769-1.022-1.34-1.771-1.715c-0.75-0.375-1.565-0.563-2.445-0.563c-1.406,0-2.587,0.436-3.543,1.307
		c-0.955,0.872-1.471,2.15-1.546,3.838h9.867C269.822,211.406,269.635,210.449,269.204,209.682z"/>
	<path fill="#081F25" d="M299.647,202.724c1.574,1.19,2.661,2.815,3.262,4.878h-2.699c-0.506-1.313-1.321-2.357-2.445-3.135
		c-1.125-0.777-2.502-1.167-4.133-1.167c-1.293,0-2.45,0.313-3.472,0.942c-1.021,0.627-1.827,1.527-2.418,2.698
		c-0.59,1.171-0.886,2.544-0.886,4.118c0,1.556,0.296,2.914,0.886,4.076c0.591,1.162,1.396,2.057,2.418,2.686
		c1.021,0.627,2.179,0.941,3.472,0.941c1.631,0,3.008-0.389,4.133-1.167c1.124-0.777,1.939-1.822,2.445-3.134h2.699
		c-0.601,2.061-1.688,3.688-3.262,4.877s-3.569,1.785-5.987,1.785c-1.855,0-3.496-0.426-4.92-1.279
		c-1.424-0.853-2.535-2.043-3.331-3.57c-0.797-1.527-1.194-3.266-1.194-5.215c0-1.968,0.397-3.72,1.194-5.257
		c0.796-1.536,1.907-2.731,3.331-3.585c1.424-0.852,3.064-1.278,4.92-1.278C296.078,200.938,298.073,201.533,299.647,202.724z"/>
	<path fill="#081F25" d="M319.945,206.996c1.105,1.152,1.658,2.816,1.658,4.99v8.968h-2.558v-8.743c0-1.536-0.394-2.717-1.181-3.542
		c-0.788-0.824-1.855-1.237-3.205-1.237c-1.406,0-2.53,0.455-3.374,1.364c-0.843,0.909-1.265,2.235-1.265,3.978v8.181h-2.559
		v-20.803h2.559v9.024c0.394-1.256,1.092-2.222,2.095-2.896c1.002-0.674,2.159-1.012,3.472-1.012
		C317.387,205.268,318.839,205.844,319.945,206.996z"/>
	<path fill="#081F25" d="M326.691,199.855c0.318-0.289,0.74-0.436,1.266-0.436c0.524,0,0.945,0.146,1.265,0.436
		c0.318,0.291,0.478,0.671,0.478,1.139c0,0.469-0.159,0.849-0.478,1.139c-0.319,0.291-0.74,0.436-1.265,0.436
		c-0.525,0-0.947-0.145-1.266-0.436c-0.318-0.29-0.478-0.67-0.478-1.139C326.214,200.526,326.373,200.146,326.691,199.855z
		 M329.222,205.521v15.434h-2.559v-15.434H329.222z"/>
	<path fill="#081F25" d="M357.77,206.996c1.097,1.152,1.645,2.816,1.645,4.99v8.968h-2.559v-8.743c0-1.518-0.37-2.68-1.11-3.485
		s-1.757-1.209-3.05-1.209c-1.35,0-2.432,0.445-3.247,1.335c-0.815,0.891-1.223,2.197-1.223,3.922v8.181h-2.559v-8.743
		c0-1.518-0.375-2.68-1.124-3.485c-0.75-0.806-1.762-1.209-3.036-1.209c-1.368,0-2.46,0.445-3.275,1.335
		c-0.815,0.891-1.223,2.197-1.223,3.922v8.181h-2.559v-15.434h2.559v3.515c0.375-1.219,1.045-2.15,2.01-2.798
		c0.965-0.646,2.076-0.97,3.331-0.97c1.313,0,2.45,0.333,3.416,0.998c0.965,0.666,1.654,1.645,2.066,2.938
		c0.431-1.256,1.152-2.225,2.164-2.91c1.013-0.684,2.155-1.025,3.43-1.025C355.226,205.268,356.673,205.844,357.77,206.996z"/>
	<path fill="#081F25" d="M364.529,199.855c0.318-0.289,0.74-0.436,1.266-0.436c0.524,0,0.945,0.146,1.265,0.436
		c0.318,0.291,0.478,0.671,0.478,1.139c0,0.469-0.159,0.849-0.478,1.139c-0.319,0.291-0.74,0.436-1.265,0.436
		c-0.525,0-0.947-0.145-1.266-0.436c-0.318-0.29-0.478-0.67-0.478-1.139C364.052,200.526,364.211,200.146,364.529,199.855z
		 M367.06,205.521v15.434h-2.559v-15.434H367.06z"/>
	<path fill="#081F25" d="M386.373,213.785h-12.342c0.057,1.762,0.558,3.084,1.504,3.965s2.104,1.32,3.472,1.32
		c1.237,0,2.272-0.313,3.106-0.941s1.345-1.467,1.532-2.516h2.728c-0.188,1.068-0.604,2.023-1.251,2.867
		c-0.647,0.844-1.486,1.5-2.517,1.968c-1.031,0.469-2.192,0.702-3.485,0.702c-1.481,0-2.793-0.318-3.937-0.955
		c-1.143-0.637-2.038-1.551-2.685-2.741s-0.97-2.591-0.97-4.202c0-1.612,0.323-3.018,0.97-4.217s1.542-2.118,2.685-2.756
		c1.144-0.637,2.455-0.955,3.937-0.955c1.499,0,2.806,0.318,3.921,0.955c1.115,0.638,1.968,1.49,2.559,2.559
		c0.59,1.068,0.886,2.249,0.886,3.542C386.485,212.924,386.447,213.393,386.373,213.785z M383.337,209.682
		c-0.432-0.769-1.022-1.34-1.771-1.715c-0.75-0.375-1.565-0.563-2.445-0.563c-1.406,0-2.587,0.436-3.543,1.307
		c-0.955,0.872-1.471,2.15-1.546,3.838h9.867C383.955,211.406,383.768,210.449,383.337,209.682z"/>
	<path fill="#081F25" d="M413.107,213.785h-12.342c0.057,1.762,0.558,3.084,1.504,3.965s2.104,1.32,3.472,1.32
		c1.237,0,2.272-0.313,3.106-0.941s1.345-1.467,1.532-2.516h2.728c-0.188,1.068-0.604,2.023-1.251,2.867
		c-0.647,0.844-1.486,1.5-2.517,1.968c-1.031,0.469-2.192,0.702-3.485,0.702c-1.481,0-2.793-0.318-3.937-0.955
		c-1.143-0.637-2.038-1.551-2.685-2.741s-0.97-2.591-0.97-4.202c0-1.612,0.323-3.018,0.97-4.217s1.542-2.118,2.685-2.756
		c1.144-0.637,2.455-0.955,3.937-0.955c1.499,0,2.806,0.318,3.921,0.955c1.115,0.638,1.968,1.49,2.559,2.559
		c0.59,1.068,0.886,2.249,0.886,3.542C413.22,212.924,413.182,213.393,413.107,213.785z M410.071,209.682
		c-0.432-0.769-1.022-1.34-1.771-1.715c-0.75-0.375-1.565-0.563-2.445-0.563c-1.406,0-2.587,0.436-3.543,1.307
		c-0.955,0.872-1.471,2.15-1.546,3.838h9.867C410.689,211.406,410.502,210.449,410.071,209.682z"/>
	<path fill="#081F25" d="M425.055,218.705v2.249h-1.912c-1.574,0-2.751-0.374-3.528-1.124s-1.166-2.006-1.166-3.768v-8.32h-2.306
		v-2.222h2.306v-3.851h2.586v3.851h3.992v2.222h-3.992v8.377c0,0.993,0.183,1.672,0.548,2.037c0.366,0.366,0.998,0.549,1.897,0.549
		H425.055z"/>
	<path fill="#081F25" d="M450.003,212.436c0.759,0.9,1.139,1.959,1.139,3.178c0,1.611-0.548,2.904-1.645,3.879
		s-2.685,1.462-4.765,1.462h-7.366v-19.819h7.253c1.986,0,3.495,0.441,4.526,1.322c1.03,0.881,1.546,2.09,1.546,3.626
		c0,1.274-0.342,2.306-1.025,3.093c-0.685,0.787-1.561,1.293-2.629,1.518C448.255,210.956,449.244,211.537,450.003,212.436z
		 M439.925,209.822h4.273c1.255,0,2.216-0.291,2.881-0.872s0.998-1.396,0.998-2.446c0-1.012-0.328-1.808-0.983-2.389
		c-0.656-0.581-1.659-0.871-3.009-0.871h-4.16V209.822z M447.389,217.891c0.74-0.619,1.11-1.49,1.11-2.615
		c0-1.105-0.38-1.973-1.139-2.6c-0.759-0.629-1.813-0.942-3.162-0.942h-4.273v7.084h4.329
		C445.604,218.817,446.648,218.508,447.389,217.891z"/>
	<path fill="#081F25" d="M455.499,199.855c0.318-0.289,0.74-0.436,1.266-0.436c0.524,0,0.945,0.146,1.265,0.436
		c0.318,0.291,0.478,0.671,0.478,1.139c0,0.469-0.159,0.849-0.478,1.139c-0.319,0.291-0.74,0.436-1.265,0.436
		c-0.525,0-0.947-0.145-1.266-0.436c-0.318-0.29-0.478-0.67-0.478-1.139C455.021,200.526,455.181,200.146,455.499,199.855z
		 M458.029,205.521v15.434h-2.559v-15.434H458.029z"/>
	<path fill="#081F25" d="M474.235,206.279c1.171,0.638,2.089,1.557,2.755,2.756c0.665,1.199,0.998,2.604,0.998,4.217
		c0,1.611-0.333,3.012-0.998,4.202c-0.666,1.19-1.584,2.104-2.755,2.741c-1.172,0.637-2.498,0.955-3.979,0.955
		s-2.807-0.318-3.978-0.955c-1.172-0.637-2.095-1.551-2.769-2.741c-0.675-1.19-1.013-2.591-1.013-4.202
		c0-1.612,0.338-3.018,1.013-4.217c0.674-1.199,1.597-2.118,2.769-2.756c1.171-0.637,2.497-0.955,3.978-0.955
		S473.063,205.643,474.235,206.279z M467.713,208.191c-0.777,0.412-1.405,1.045-1.884,1.897c-0.478,0.853-0.717,1.907-0.717,3.163
		c0,1.236,0.239,2.281,0.717,3.134c0.479,0.853,1.106,1.485,1.884,1.897s1.626,0.619,2.544,0.619s1.767-0.207,2.545-0.619
		c0.777-0.412,1.405-1.045,1.883-1.897c0.479-0.853,0.717-1.897,0.717-3.134c0-1.256-0.238-2.311-0.717-3.163
		c-0.478-0.853-1.105-1.485-1.883-1.897c-0.778-0.412-1.627-0.619-2.545-0.619S468.49,207.779,467.713,208.191z"/>
	<path fill="#081F25" d="M485.016,200.151v20.803h-2.559v-20.803H485.016z"/>
	<path fill="#081F25" d="M501.223,206.279c1.171,0.638,2.089,1.557,2.755,2.756c0.665,1.199,0.998,2.604,0.998,4.217
		c0,1.611-0.333,3.012-0.998,4.202c-0.666,1.19-1.584,2.104-2.755,2.741c-1.172,0.637-2.498,0.955-3.979,0.955
		s-2.807-0.318-3.978-0.955c-1.172-0.637-2.095-1.551-2.769-2.741c-0.675-1.19-1.013-2.591-1.013-4.202
		c0-1.612,0.338-3.018,1.013-4.217c0.674-1.199,1.597-2.118,2.769-2.756c1.171-0.637,2.497-0.955,3.978-0.955
		S500.051,205.643,501.223,206.279z M494.7,208.191c-0.777,0.412-1.405,1.045-1.884,1.897c-0.478,0.853-0.717,1.907-0.717,3.163
		c0,1.236,0.239,2.281,0.717,3.134c0.479,0.853,1.106,1.485,1.884,1.897s1.626,0.619,2.544,0.619s1.767-0.207,2.545-0.619
		c0.777-0.412,1.405-1.045,1.883-1.897c0.479-0.853,0.717-1.897,0.717-3.134c0-1.256-0.238-2.311-0.717-3.163
		c-0.478-0.853-1.105-1.485-1.883-1.897c-0.778-0.412-1.627-0.619-2.545-0.619S495.478,207.779,494.7,208.191z"/>
	<path fill="#081F25" d="M519.579,206.448c1.04,0.75,1.767,1.753,2.179,3.008v-3.936h2.559v15.687c0,1.424-0.301,2.689-0.9,3.795
		s-1.443,1.969-2.529,2.586c-1.088,0.619-2.353,0.928-3.796,0.928c-2.08,0-3.776-0.501-5.088-1.504
		c-1.313-1.002-2.146-2.356-2.502-4.062h2.53c0.3,1.03,0.866,1.841,1.7,2.432s1.907,0.886,3.219,0.886
		c1.387,0,2.535-0.445,3.444-1.336c0.908-0.891,1.363-2.132,1.363-3.725v-4.188c-0.412,1.256-1.139,2.259-2.179,3.008
		c-1.04,0.75-2.31,1.124-3.81,1.124c-1.368,0-2.586-0.318-3.654-0.955s-1.907-1.551-2.516-2.741
		c-0.609-1.19-0.914-2.591-0.914-4.202c0-1.612,0.305-3.018,0.914-4.217c0.608-1.199,1.447-2.118,2.516-2.756
		c1.068-0.637,2.286-0.955,3.654-0.955C517.27,205.324,518.539,205.699,519.579,206.448z M512.72,209.105
		c-0.946,1.002-1.42,2.385-1.42,4.146s0.474,3.144,1.42,4.146c0.946,1.002,2.207,1.504,3.781,1.504c1.012,0,1.916-0.234,2.713-0.703
		c0.796-0.469,1.42-1.129,1.869-1.982c0.45-0.852,0.675-1.841,0.675-2.965c0-1.125-0.225-2.118-0.675-2.98
		c-0.449-0.861-1.073-1.522-1.869-1.982c-0.797-0.459-1.701-0.688-2.713-0.688C514.927,207.602,513.666,208.103,512.72,209.105z"/>
	<path fill="#081F25" d="M529.545,199.855c0.318-0.289,0.74-0.436,1.266-0.436c0.524,0,0.945,0.146,1.265,0.436
		c0.318,0.291,0.478,0.671,0.478,1.139c0,0.469-0.159,0.849-0.478,1.139c-0.319,0.291-0.74,0.436-1.265,0.436
		c-0.525,0-0.947-0.145-1.266-0.436c-0.318-0.29-0.478-0.67-0.478-1.139C529.067,200.526,529.227,200.146,529.545,199.855z
		 M532.075,205.521v15.434h-2.559v-15.434H532.075z"/>
	<path fill="#081F25" d="M551.389,213.785h-12.342c0.057,1.762,0.558,3.084,1.504,3.965s2.104,1.32,3.472,1.32
		c1.237,0,2.272-0.313,3.106-0.941s1.345-1.467,1.532-2.516h2.728c-0.188,1.068-0.604,2.023-1.251,2.867
		c-0.647,0.844-1.486,1.5-2.517,1.968c-1.031,0.469-2.192,0.702-3.485,0.702c-1.481,0-2.793-0.318-3.937-0.955
		c-1.143-0.637-2.038-1.551-2.685-2.741s-0.97-2.591-0.97-4.202c0-1.612,0.323-3.018,0.97-4.217s1.542-2.118,2.685-2.756
		c1.144-0.637,2.455-0.955,3.937-0.955c1.499,0,2.806,0.318,3.921,0.955c1.115,0.638,1.968,1.49,2.559,2.559
		c0.59,1.068,0.886,2.249,0.886,3.542C551.501,212.924,551.463,213.393,551.389,213.785z M548.353,209.682
		c-0.432-0.769-1.022-1.34-1.771-1.715c-0.75-0.375-1.565-0.563-2.445-0.563c-1.406,0-2.587,0.436-3.543,1.307
		c-0.955,0.872-1.471,2.15-1.546,3.838h9.867C548.971,211.406,548.783,210.449,548.353,209.682z"/>
</g>
<g>
	<path fill="#081F25" d="M65.765,55.311v79.198H49.946V55.311H65.765z"/>
	<path fill="#081F25" d="M100.427,67.874v20.529h28.043v12.115h-28.043v21.313h31.41v12.677H84.609V55.311h47.229v12.563H100.427z"
		/>
	<path fill="#081F25" d="M208.341,62.153c6.508,5.087,10.808,12.004,12.901,20.754h-16.602c-1.722-4.263-4.395-7.629-8.022-10.098
		c-3.628-2.468-7.983-3.702-13.068-3.702c-4.19,0-7.965,1.049-11.331,3.142c-3.364,2.096-5.983,5.087-7.852,8.975
		c-1.871,3.89-2.804,8.452-2.804,13.686c0,5.161,0.934,9.687,2.804,13.574c1.869,3.89,4.487,6.882,7.852,8.975
		c3.366,2.094,7.141,3.141,11.331,3.141c5.084,0,9.44-1.234,13.068-3.702c3.628-2.469,6.3-5.833,8.022-10.096h16.602
		c-2.093,8.75-6.393,15.668-12.901,20.753c-6.506,5.087-14.695,7.629-24.566,7.629c-7.555,0-14.23-1.701-20.025-5.105
		c-5.795-3.401-10.282-8.169-13.461-14.302c-3.179-6.131-4.767-13.087-4.767-20.866c0-7.853,1.588-14.844,4.767-20.977
		c3.179-6.132,7.646-10.899,13.406-14.304c5.758-3.402,12.452-5.104,20.081-5.104C193.646,54.525,201.835,57.067,208.341,62.153z"/>
	<path fill="#081F25" d="M293.316,100.462c2.879,3.554,4.32,7.724,4.32,12.509c0,6.657-2.227,11.911-6.675,15.762
		c-4.45,3.853-10.9,5.776-19.352,5.776h-33.989V55.311h33.315c8.002,0,14.153,1.757,18.453,5.271
		c4.3,3.517,6.451,8.453,6.451,14.809c0,4.936-1.29,8.975-3.87,12.114c-2.581,3.143-5.964,5.2-10.152,6.171
		C286.604,94.648,290.437,96.912,293.316,100.462z M253.437,88.515h14.247c3.964,0,6.974-0.878,9.031-2.635
		c2.057-1.758,3.085-4.281,3.085-7.573c0-3.289-1.01-5.833-3.029-7.627c-2.019-1.796-5.123-2.693-9.312-2.693h-14.022V88.515z
		 M278.116,118.859c2.244-1.831,3.366-4.504,3.366-8.021c0-3.515-1.141-6.226-3.422-8.134c-2.282-1.905-5.515-2.859-9.703-2.859
		h-14.92v21.763h15.032C272.657,121.608,275.873,120.693,278.116,118.859z"/>
</g>
<g>
	<path fill="#92117D" d="M66.637,167.534v103.13H49.991v-103.13H66.637z"/>
	<path fill="#F47920" d="M94.274,167.534v103.13H77.625v-103.13H94.274z"/>
	<path fill="#8DC63F" d="M121.911,167.534v103.13h-16.648v-103.13H121.911z"/>
	<path fill="#ED1C24" d="M149.545,167.534v103.13h-16.646v-103.13H149.545z"/>
	<path fill="#0072BC" d="M177.182,167.534v103.13h-16.648v-103.13H177.182z"/>
	<path fill="#FFC709" d="M204.819,167.534v103.13H188.17v-103.13H204.819z"/>
</g>
</svg>
