<?xml version="1.0" encoding="utf-8"?>
<!-- Generator: Adobe Illustrator 16.0.1, SVG Export Plug-In . SVG Version: 6.00 Build 0)  -->
<!DOCTYPE svg PUBLIC "-//W3C//DTD SVG 1.1//EN" "http://www.w3.org/Graphics/SVG/1.1/DTD/svg11.dtd">
<svg version="1.1" id="Calque_1" xmlns="http://www.w3.org/2000/svg" xmlns:xlink="http://www.w3.org/1999/xlink" x="0px" y="0px"
	 width="895px" height="183px" viewBox="0 0 895 183" enable-background="new 0 0 895 183" xml:space="preserve">
<rect fill="#FFFFFF" width="895" height="183"/>
<g>
	<path fill="#081F25" d="M534.649,80.4v19.819h-2.559V80.4H534.649z"/>
	<path fill="#081F25" d="M552.36,86.261c1.105,1.152,1.658,2.816,1.658,4.99v8.968h-2.558v-8.743c0-1.537-0.394-2.717-1.181-3.542
		c-0.788-0.824-1.855-1.237-3.205-1.237c-1.406,0-2.53,0.455-3.374,1.364c-0.843,0.909-1.265,2.235-1.265,3.978v8.181h-2.559V84.785
		h2.559v3.655c0.394-1.255,1.092-2.221,2.095-2.896c1.002-0.675,2.159-1.012,3.472-1.012
		C549.802,84.532,551.254,85.108,552.36,86.261z"/>
	<path fill="#081F25" d="M568.116,85.952c1.059,0.909,1.701,2.132,1.926,3.668h-2.445c-0.112-0.918-0.492-1.673-1.139-2.263
		s-1.514-0.885-2.601-0.885c-0.918,0-1.635,0.22-2.15,0.661s-0.773,1.036-0.773,1.785c0,0.563,0.174,1.017,0.521,1.364
		s0.777,0.609,1.293,0.787c0.516,0.178,1.223,0.37,2.122,0.576c1.144,0.263,2.066,0.529,2.77,0.801
		c0.703,0.272,1.303,0.708,1.799,1.308c0.497,0.601,0.745,1.405,0.745,2.417c0,1.256-0.474,2.277-1.42,3.064
		s-2.206,1.182-3.78,1.182c-1.837,0-3.337-0.44-4.498-1.322c-1.162-0.881-1.847-2.107-2.053-3.682h2.475
		c0.093,0.938,0.501,1.695,1.223,2.276c0.721,0.581,1.673,0.872,2.854,0.872c0.88,0,1.569-0.225,2.065-0.676
		c0.497-0.449,0.745-1.039,0.745-1.771c0-0.6-0.178-1.077-0.534-1.434c-0.355-0.356-0.797-0.628-1.321-0.815
		s-1.246-0.384-2.164-0.59c-1.144-0.263-2.058-0.525-2.741-0.787c-0.685-0.263-1.265-0.679-1.743-1.251
		c-0.478-0.571-0.717-1.344-0.717-2.319c0-1.293,0.479-2.337,1.434-3.134c0.956-0.796,2.259-1.195,3.908-1.195
		C565.657,84.588,567.058,85.043,568.116,85.952z"/>
	<path fill="#081F25" d="M582.103,97.97v2.249h-1.912c-1.574,0-2.751-0.375-3.528-1.125c-0.777-0.749-1.166-2.005-1.166-3.767
		v-8.321h-2.306v-2.221h2.306v-3.851h2.586v3.851h3.992v2.221h-3.992v8.376c0,0.994,0.183,1.674,0.548,2.039
		c0.366,0.365,0.998,0.548,1.897,0.548H582.103z"/>
	<path fill="#081F25" d="M586.375,79.121c0.318-0.29,0.74-0.436,1.266-0.436c0.524,0,0.945,0.146,1.265,0.436
		c0.318,0.291,0.478,0.67,0.478,1.139c0,0.469-0.159,0.848-0.478,1.139c-0.319,0.291-0.74,0.436-1.265,0.436
		c-0.525,0-0.947-0.145-1.266-0.436s-0.478-0.67-0.478-1.139C585.897,79.791,586.057,79.412,586.375,79.121z M588.905,84.785v15.434
		h-2.559V84.785H588.905z"/>
	<path fill="#081F25" d="M601.499,97.97v2.249h-1.912c-1.574,0-2.751-0.375-3.528-1.125c-0.777-0.749-1.166-2.005-1.166-3.767
		v-8.321h-2.306v-2.221h2.306v-3.851h2.586v3.851h3.992v2.221h-3.992v8.376c0,0.994,0.183,1.674,0.548,2.039
		c0.366,0.365,0.998,0.548,1.897,0.548H601.499z"/>
	<path fill="#081F25" d="M619.462,84.785v15.434h-2.558v-3.627c-0.394,1.256-1.092,2.217-2.095,2.882s-2.169,0.998-3.5,0.998
		c-1.78,0-3.224-0.576-4.329-1.729c-1.106-1.152-1.658-2.806-1.658-4.961v-8.996h2.558v8.743c0,1.536,0.394,2.722,1.181,3.556
		s1.855,1.252,3.205,1.252c1.405,0,2.53-0.455,3.373-1.364c0.844-0.909,1.266-2.235,1.266-3.978v-8.209H619.462z"/>
	<path fill="#081F25" d="M632.057,97.97v2.249h-1.912c-1.574,0-2.751-0.375-3.528-1.125c-0.777-0.749-1.166-2.005-1.166-3.767
		v-8.321h-2.306v-2.221h2.306v-3.851h2.586v3.851h3.992v2.221h-3.992v8.376c0,0.994,0.183,1.674,0.548,2.039
		c0.366,0.365,0.998,0.548,1.897,0.548H632.057z"/>
	<path fill="#081F25" d="M646.927,82.48v6.775h7.534v1.968h-7.534v6.916h8.377v2.08h-10.936V80.4h10.936v2.08H646.927z"/>
	<path fill="#081F25" d="M673.436,84.785v15.434h-2.558v-3.627c-0.394,1.256-1.092,2.217-2.095,2.882s-2.169,0.998-3.5,0.998
		c-1.78,0-3.224-0.576-4.329-1.729c-1.106-1.152-1.658-2.806-1.658-4.961v-8.996h2.558v8.743c0,1.536,0.394,2.722,1.181,3.556
		s1.855,1.252,3.205,1.252c1.405,0,2.53-0.455,3.373-1.364c0.844-0.909,1.266-2.235,1.266-3.978v-8.209H673.436z"/>
	<path fill="#081F25" d="M683.443,85.418c0.975-0.59,2.137-0.886,3.486-0.886v2.783h-0.787c-1.443,0-2.624,0.37-3.542,1.11
		c-0.919,0.741-1.378,1.963-1.378,3.668v8.125h-2.559V84.785h2.559v3.121C681.729,86.837,682.469,86.008,683.443,85.418z"/>
	<path fill="#081F25" d="M701.562,85.544c1.171,0.637,2.089,1.556,2.755,2.755c0.665,1.2,0.998,2.605,0.998,4.216
		c0,1.612-0.333,3.014-0.998,4.203c-0.666,1.19-1.584,2.104-2.755,2.741c-1.172,0.638-2.498,0.956-3.979,0.956
		s-2.807-0.318-3.978-0.956c-1.172-0.638-2.095-1.551-2.769-2.741c-0.675-1.189-1.013-2.591-1.013-4.203
		c0-1.611,0.338-3.017,1.013-4.216c0.674-1.199,1.597-2.118,2.769-2.755c1.171-0.637,2.497-0.956,3.978-0.956
		S700.39,84.907,701.562,85.544z M695.039,87.456c-0.777,0.412-1.405,1.045-1.884,1.897c-0.478,0.853-0.717,1.907-0.717,3.162
		c0,1.237,0.239,2.282,0.717,3.135c0.479,0.854,1.106,1.486,1.884,1.898s1.626,0.617,2.544,0.617s1.767-0.205,2.545-0.617
		c0.777-0.412,1.405-1.045,1.883-1.898c0.479-0.853,0.717-1.897,0.717-3.135c0-1.255-0.238-2.309-0.717-3.162
		c-0.478-0.853-1.105-1.485-1.883-1.897c-0.778-0.412-1.627-0.619-2.545-0.619S695.816,87.044,695.039,87.456z"/>
	<path fill="#081F25" d="M721.956,85.544c1.068,0.637,1.907,1.556,2.516,2.755c0.609,1.2,0.914,2.605,0.914,4.216
		c0,1.612-0.305,3.014-0.914,4.203c-0.608,1.19-1.447,2.104-2.516,2.741s-2.287,0.956-3.654,0.956c-1.5,0-2.77-0.38-3.81-1.139
		c-1.04-0.76-1.757-1.758-2.15-2.994v11.244h-2.559V84.785h2.559v3.936c0.394-1.237,1.11-2.235,2.15-2.994
		c1.04-0.759,2.31-1.139,3.81-1.139C719.669,84.588,720.888,84.907,721.956,85.544z M714.872,87.554
		c-0.807,0.459-1.434,1.12-1.884,1.982c-0.449,0.862-0.675,1.855-0.675,2.979c0,1.125,0.226,2.113,0.675,2.967
		c0.45,0.853,1.077,1.514,1.884,1.981c0.806,0.469,1.705,0.702,2.698,0.702c1.593,0,2.863-0.5,3.81-1.504
		c0.946-1.002,1.42-2.385,1.42-4.146c0-1.761-0.474-3.143-1.42-4.146c-0.946-1.002-2.217-1.504-3.81-1.504
		C716.577,86.866,715.678,87.095,714.872,87.554z"/>
	<path fill="#081F25" d="M743.94,93.051h-12.342c0.057,1.762,0.558,3.082,1.504,3.963s2.104,1.322,3.472,1.322
		c1.237,0,2.272-0.314,3.106-0.942s1.345-1.466,1.532-2.517h2.728c-0.188,1.068-0.604,2.024-1.251,2.868
		c-0.647,0.843-1.486,1.499-2.517,1.968c-1.031,0.469-2.192,0.703-3.485,0.703c-1.481,0-2.793-0.318-3.937-0.956
		c-1.143-0.638-2.038-1.551-2.685-2.741c-0.646-1.189-0.97-2.591-0.97-4.203c0-1.611,0.323-3.017,0.97-4.216
		c0.646-1.199,1.542-2.118,2.685-2.755c1.144-0.637,2.455-0.956,3.937-0.956c1.499,0,2.806,0.319,3.921,0.956
		s1.968,1.49,2.559,2.558c0.59,1.068,0.886,2.249,0.886,3.542C744.053,92.188,744.015,92.656,743.94,93.051z M740.904,88.946
		c-0.432-0.768-1.022-1.34-1.771-1.715c-0.75-0.375-1.565-0.562-2.445-0.562c-1.406,0-2.587,0.436-3.543,1.307
		c-0.955,0.872-1.471,2.15-1.546,3.837h9.867C741.522,90.67,741.335,89.714,740.904,88.946z M741.213,80.287l-5.987,3.29v-1.828
		l5.987-3.542V80.287z"/>
	<path fill="#081F25" d="M762.606,93.051h-12.342c0.057,1.762,0.558,3.082,1.504,3.963s2.104,1.322,3.472,1.322
		c1.237,0,2.272-0.314,3.106-0.942s1.345-1.466,1.532-2.517h2.728c-0.188,1.068-0.604,2.024-1.251,2.868
		c-0.647,0.843-1.486,1.499-2.517,1.968c-1.031,0.469-2.192,0.703-3.485,0.703c-1.481,0-2.793-0.318-3.937-0.956
		c-1.143-0.638-2.038-1.551-2.685-2.741c-0.646-1.189-0.97-2.591-0.97-4.203c0-1.611,0.323-3.017,0.97-4.216
		c0.646-1.199,1.542-2.118,2.685-2.755c1.144-0.637,2.455-0.956,3.937-0.956c1.499,0,2.806,0.319,3.921,0.956
		s1.968,1.49,2.559,2.558c0.59,1.068,0.886,2.249,0.886,3.542C762.719,92.188,762.681,92.656,762.606,93.051z M759.57,88.946
		c-0.432-0.768-1.022-1.34-1.771-1.715c-0.75-0.375-1.565-0.562-2.445-0.562c-1.406,0-2.587,0.436-3.543,1.307
		c-0.955,0.872-1.471,2.15-1.546,3.837h9.867C760.188,90.67,760.001,89.714,759.57,88.946z"/>
	<path fill="#081F25" d="M779.67,86.261c1.105,1.152,1.658,2.816,1.658,4.99v8.968h-2.558v-8.743c0-1.537-0.394-2.717-1.181-3.542
		c-0.788-0.824-1.855-1.237-3.205-1.237c-1.406,0-2.53,0.455-3.374,1.364c-0.843,0.909-1.265,2.235-1.265,3.978v8.181h-2.559V84.785
		h2.559v3.655c0.394-1.255,1.092-2.221,2.095-2.896c1.002-0.675,2.159-1.012,3.472-1.012
		C777.111,84.532,778.563,85.108,779.67,86.261z"/>
	<path fill="#081F25" d="M542.226,119.447c1.04,0.75,1.767,1.752,2.179,3.008v-9.305h2.559v20.803h-2.559v-3.936
		c-0.412,1.256-1.139,2.258-2.179,3.008s-2.31,1.125-3.81,1.125c-1.368,0-2.586-0.318-3.654-0.956s-1.907-1.551-2.516-2.741
		c-0.609-1.189-0.914-2.591-0.914-4.203c0-1.611,0.305-3.017,0.914-4.217c0.608-1.199,1.447-2.117,2.516-2.754
		c1.068-0.638,2.286-0.957,3.654-0.957C539.916,118.322,541.186,118.697,542.226,119.447z M535.366,122.104
		c-0.946,1.004-1.42,2.386-1.42,4.146c0,1.762,0.474,3.145,1.42,4.146c0.946,1.004,2.207,1.504,3.781,1.504
		c1.012,0,1.916-0.233,2.713-0.702c0.796-0.468,1.42-1.129,1.869-1.981c0.45-0.854,0.675-1.842,0.675-2.967
		c0-1.124-0.225-2.117-0.675-2.979c-0.449-0.862-1.073-1.522-1.869-1.981c-0.797-0.459-1.701-0.689-2.713-0.689
		C537.573,120.6,536.313,121.102,535.366,122.104z"/>
	<path fill="#081F25" d="M566.248,126.785h-12.342c0.057,1.762,0.558,3.082,1.504,3.963s2.104,1.322,3.472,1.322
		c1.237,0,2.272-0.314,3.106-0.942s1.345-1.466,1.532-2.517h2.728c-0.188,1.068-0.604,2.024-1.251,2.868
		c-0.647,0.843-1.486,1.499-2.517,1.968c-1.031,0.469-2.192,0.703-3.485,0.703c-1.481,0-2.793-0.318-3.937-0.956
		c-1.143-0.638-2.038-1.551-2.685-2.741c-0.646-1.189-0.97-2.591-0.97-4.203c0-1.611,0.323-3.017,0.97-4.217
		c0.646-1.199,1.542-2.117,2.685-2.754c1.144-0.638,2.455-0.957,3.937-0.957c1.499,0,2.806,0.319,3.921,0.957
		c1.115,0.637,1.968,1.489,2.559,2.558c0.59,1.068,0.886,2.249,0.886,3.542C566.36,125.923,566.322,126.391,566.248,126.785z
		 M563.212,122.68c-0.432-0.768-1.022-1.34-1.771-1.715c-0.75-0.374-1.565-0.562-2.445-0.562c-1.406,0-2.587,0.436-3.543,1.308
		c-0.955,0.871-1.471,2.15-1.546,3.837h9.867C563.83,124.404,563.643,123.449,563.212,122.68z"/>
	<path fill="#081F25" d="M593.655,115.723c1.574,1.19,2.661,2.816,3.262,4.877h-2.699c-0.506-1.312-1.321-2.356-2.445-3.135
		c-1.125-0.777-2.502-1.166-4.133-1.166c-1.293,0-2.45,0.314-3.472,0.941c-1.021,0.629-1.827,1.527-2.418,2.699
		c-0.59,1.172-0.886,2.544-0.886,4.118c0,1.556,0.296,2.915,0.886,4.076c0.591,1.163,1.396,2.058,2.418,2.685
		c1.021,0.629,2.179,0.941,3.472,0.941c1.631,0,3.008-0.389,4.133-1.166c1.124-0.777,1.939-1.822,2.445-3.135h2.699
		c-0.601,2.063-1.688,3.688-3.262,4.878s-3.569,1.784-5.987,1.784c-1.855,0-3.496-0.426-4.92-1.278s-2.535-2.042-3.331-3.57
		c-0.797-1.527-1.194-3.265-1.194-5.215c0-1.968,0.397-3.72,1.194-5.257c0.796-1.537,1.907-2.731,3.331-3.584
		c1.424-0.854,3.064-1.279,4.92-1.279C590.086,113.938,592.081,114.533,593.655,115.723z"/>
	<path fill="#081F25" d="M613.953,119.996c1.105,1.152,1.658,2.815,1.658,4.989v8.968h-2.558v-8.742
		c0-1.537-0.394-2.718-1.181-3.543c-0.788-0.824-1.855-1.236-3.205-1.236c-1.406,0-2.53,0.454-3.374,1.363
		c-0.843,0.909-1.265,2.234-1.265,3.978v8.181h-2.559V113.15h2.559v9.023c0.394-1.255,1.092-2.221,2.095-2.895
		c1.002-0.676,2.159-1.013,3.472-1.013C611.395,118.267,612.847,118.843,613.953,119.996z"/>
	<path fill="#081F25" d="M620.699,112.855c0.318-0.291,0.74-0.436,1.266-0.436c0.524,0,0.945,0.145,1.265,0.436
		c0.318,0.291,0.478,0.67,0.478,1.139s-0.159,0.848-0.478,1.139c-0.319,0.29-0.74,0.436-1.265,0.436
		c-0.525,0-0.947-0.146-1.266-0.436c-0.318-0.291-0.478-0.67-0.478-1.139S620.381,113.146,620.699,112.855z M623.229,118.52v15.434
		h-2.559V118.52H623.229z"/>
	<path fill="#081F25" d="M651.777,119.996c1.097,1.152,1.645,2.815,1.645,4.989v8.968h-2.559v-8.742c0-1.519-0.37-2.681-1.11-3.486
		s-1.757-1.209-3.05-1.209c-1.35,0-2.432,0.445-3.247,1.336c-0.815,0.89-1.223,2.197-1.223,3.921v8.181h-2.559v-8.742
		c0-1.519-0.375-2.681-1.124-3.486c-0.75-0.806-1.762-1.209-3.036-1.209c-1.368,0-2.46,0.445-3.275,1.336
		c-0.815,0.89-1.223,2.197-1.223,3.921v8.181h-2.559V118.52h2.559v3.514c0.375-1.218,1.045-2.15,2.01-2.797s2.076-0.97,3.331-0.97
		c1.313,0,2.45,0.333,3.416,0.998c0.965,0.665,1.654,1.645,2.066,2.938c0.431-1.255,1.152-2.226,2.164-2.909
		c1.013-0.684,2.155-1.026,3.43-1.026C649.233,118.267,650.681,118.843,651.777,119.996z"/>
	<path fill="#081F25" d="M658.537,112.855c0.318-0.291,0.74-0.436,1.266-0.436c0.524,0,0.945,0.145,1.265,0.436
		c0.318,0.291,0.478,0.67,0.478,1.139s-0.159,0.848-0.478,1.139c-0.319,0.29-0.74,0.436-1.265,0.436
		c-0.525,0-0.947-0.146-1.266-0.436c-0.318-0.291-0.478-0.67-0.478-1.139S658.219,113.146,658.537,112.855z M661.067,118.52v15.434
		h-2.559V118.52H661.067z"/>
	<path fill="#081F25" d="M680.381,126.785h-12.342c0.057,1.762,0.558,3.082,1.504,3.963s2.104,1.322,3.472,1.322
		c1.237,0,2.272-0.314,3.106-0.942s1.345-1.466,1.532-2.517h2.728c-0.188,1.068-0.604,2.024-1.251,2.868
		c-0.647,0.843-1.486,1.499-2.517,1.968c-1.031,0.469-2.192,0.703-3.485,0.703c-1.481,0-2.793-0.318-3.937-0.956
		c-1.143-0.638-2.038-1.551-2.685-2.741c-0.646-1.189-0.97-2.591-0.97-4.203c0-1.611,0.323-3.017,0.97-4.217
		c0.646-1.199,1.542-2.117,2.685-2.754c1.144-0.638,2.455-0.957,3.937-0.957c1.499,0,2.806,0.319,3.921,0.957
		c1.115,0.637,1.968,1.489,2.559,2.558c0.59,1.068,0.886,2.249,0.886,3.542C680.493,125.923,680.455,126.391,680.381,126.785z
		 M677.345,122.68c-0.432-0.768-1.022-1.34-1.771-1.715c-0.75-0.374-1.565-0.562-2.445-0.562c-1.406,0-2.587,0.436-3.543,1.308
		c-0.955,0.871-1.471,2.15-1.546,3.837h9.867C677.963,124.404,677.775,123.449,677.345,122.68z"/>
	<path fill="#081F25" d="M707.115,126.785h-12.342c0.057,1.762,0.558,3.082,1.504,3.963s2.104,1.322,3.472,1.322
		c1.237,0,2.272-0.314,3.106-0.942s1.345-1.466,1.532-2.517h2.728c-0.188,1.068-0.604,2.024-1.251,2.868
		c-0.647,0.843-1.486,1.499-2.517,1.968c-1.031,0.469-2.192,0.703-3.485,0.703c-1.481,0-2.793-0.318-3.937-0.956
		c-1.143-0.638-2.038-1.551-2.685-2.741c-0.646-1.189-0.97-2.591-0.97-4.203c0-1.611,0.323-3.017,0.97-4.217
		c0.646-1.199,1.542-2.117,2.685-2.754c1.144-0.638,2.455-0.957,3.937-0.957c1.499,0,2.806,0.319,3.921,0.957
		c1.115,0.637,1.968,1.489,2.559,2.558c0.59,1.068,0.886,2.249,0.886,3.542C707.228,125.923,707.189,126.391,707.115,126.785z
		 M704.079,122.68c-0.432-0.768-1.022-1.34-1.771-1.715c-0.75-0.374-1.565-0.562-2.445-0.562c-1.406,0-2.587,0.436-3.543,1.308
		c-0.955,0.871-1.471,2.15-1.546,3.837h9.867C704.697,124.404,704.51,123.449,704.079,122.68z"/>
	<path fill="#081F25" d="M719.063,131.704v2.249h-1.912c-1.574,0-2.751-0.375-3.528-1.125c-0.777-0.749-1.166-2.005-1.166-3.767
		v-8.321h-2.306v-2.221h2.306v-3.852h2.586v3.852h3.992v2.221h-3.992v8.377c0,0.994,0.183,1.674,0.548,2.039
		c0.366,0.365,0.998,0.548,1.897,0.548H719.063z"/>
	<path fill="#081F25" d="M744.011,125.436c0.759,0.899,1.139,1.959,1.139,3.176c0,1.613-0.548,2.906-1.645,3.88
		c-1.097,0.975-2.685,1.462-4.765,1.462h-7.366v-19.818h7.253c1.986,0,3.495,0.439,4.526,1.32c1.03,0.881,1.546,2.09,1.546,3.627
		c0,1.274-0.342,2.305-1.025,3.092c-0.685,0.787-1.561,1.293-2.629,1.519C742.263,123.955,743.252,124.535,744.011,125.436z
		 M733.933,122.82h4.273c1.255,0,2.216-0.29,2.881-0.871c0.665-0.58,0.998-1.396,0.998-2.445c0-1.012-0.328-1.809-0.983-2.39
		c-0.656-0.581-1.659-0.872-3.009-0.872h-4.16V122.82z M741.396,130.889c0.74-0.618,1.11-1.49,1.11-2.614
		c0-1.105-0.38-1.972-1.139-2.601c-0.759-0.627-1.813-0.941-3.162-0.941h-4.273v7.084h4.329
		C739.611,131.816,740.656,131.508,741.396,130.889z"/>
	<path fill="#081F25" d="M749.507,112.855c0.318-0.291,0.74-0.436,1.266-0.436c0.524,0,0.945,0.145,1.265,0.436
		c0.318,0.291,0.478,0.67,0.478,1.139s-0.159,0.848-0.478,1.139c-0.319,0.29-0.74,0.436-1.265,0.436
		c-0.525,0-0.947-0.146-1.266-0.436c-0.318-0.291-0.478-0.67-0.478-1.139S749.188,113.146,749.507,112.855z M752.037,118.52v15.434
		h-2.559V118.52H752.037z"/>
	<path fill="#081F25" d="M768.243,119.279c1.171,0.637,2.089,1.555,2.755,2.754c0.665,1.2,0.998,2.605,0.998,4.217
		c0,1.612-0.333,3.014-0.998,4.203c-0.666,1.19-1.584,2.104-2.755,2.741c-1.172,0.638-2.498,0.956-3.979,0.956
		s-2.807-0.318-3.978-0.956c-1.172-0.638-2.095-1.551-2.769-2.741c-0.675-1.189-1.013-2.591-1.013-4.203
		c0-1.611,0.338-3.017,1.013-4.217c0.674-1.199,1.597-2.117,2.769-2.754c1.171-0.638,2.497-0.957,3.978-0.957
		S767.071,118.642,768.243,119.279z M761.721,121.19c-0.777,0.412-1.405,1.045-1.884,1.897c-0.478,0.854-0.717,1.907-0.717,3.162
		c0,1.237,0.239,2.282,0.717,3.135c0.479,0.854,1.106,1.486,1.884,1.898s1.626,0.617,2.544,0.617s1.767-0.205,2.545-0.617
		c0.777-0.412,1.405-1.045,1.883-1.898c0.479-0.853,0.717-1.897,0.717-3.135c0-1.255-0.238-2.309-0.717-3.162
		c-0.478-0.853-1.105-1.485-1.883-1.897c-0.778-0.412-1.627-0.618-2.545-0.618S762.498,120.778,761.721,121.19z"/>
	<path fill="#081F25" d="M779.023,113.15v20.803h-2.559V113.15H779.023z"/>
	<path fill="#081F25" d="M795.23,119.279c1.171,0.637,2.089,1.555,2.755,2.754c0.665,1.2,0.998,2.605,0.998,4.217
		c0,1.612-0.333,3.014-0.998,4.203c-0.666,1.19-1.584,2.104-2.755,2.741c-1.172,0.638-2.498,0.956-3.979,0.956
		s-2.807-0.318-3.978-0.956c-1.172-0.638-2.095-1.551-2.769-2.741c-0.675-1.189-1.013-2.591-1.013-4.203
		c0-1.611,0.338-3.017,1.013-4.217c0.674-1.199,1.597-2.117,2.769-2.754c1.171-0.638,2.497-0.957,3.978-0.957
		S794.059,118.642,795.23,119.279z M788.708,121.19c-0.777,0.412-1.405,1.045-1.884,1.897c-0.478,0.854-0.717,1.907-0.717,3.162
		c0,1.237,0.239,2.282,0.717,3.135c0.479,0.854,1.106,1.486,1.884,1.898s1.626,0.617,2.544,0.617s1.767-0.205,2.545-0.617
		c0.777-0.412,1.405-1.045,1.883-1.898c0.479-0.853,0.717-1.897,0.717-3.135c0-1.255-0.238-2.309-0.717-3.162
		c-0.478-0.853-1.105-1.485-1.883-1.897c-0.778-0.412-1.627-0.618-2.545-0.618S789.485,120.778,788.708,121.19z"/>
	<path fill="#081F25" d="M813.587,119.447c1.04,0.75,1.767,1.752,2.179,3.008v-3.936h2.559v15.687c0,1.425-0.301,2.688-0.9,3.796
		c-0.6,1.105-1.443,1.967-2.529,2.586c-1.088,0.618-2.353,0.928-3.796,0.928c-2.08,0-3.776-0.502-5.088-1.504
		c-1.313-1.004-2.146-2.357-2.502-4.063h2.53c0.3,1.03,0.866,1.842,1.7,2.432s1.907,0.885,3.219,0.885
		c1.387,0,2.535-0.445,3.444-1.334c0.908-0.891,1.363-2.133,1.363-3.726v-4.188c-0.412,1.256-1.139,2.258-2.179,3.008
		s-2.31,1.125-3.81,1.125c-1.368,0-2.586-0.318-3.654-0.956s-1.907-1.551-2.516-2.741c-0.609-1.189-0.914-2.591-0.914-4.203
		c0-1.611,0.305-3.017,0.914-4.217c0.608-1.199,1.447-2.117,2.516-2.754c1.068-0.638,2.286-0.957,3.654-0.957
		C811.277,118.322,812.547,118.697,813.587,119.447z M806.728,122.104c-0.946,1.004-1.42,2.386-1.42,4.146
		c0,1.762,0.474,3.145,1.42,4.146c0.946,1.004,2.207,1.504,3.781,1.504c1.012,0,1.916-0.233,2.713-0.702
		c0.796-0.468,1.42-1.129,1.869-1.981c0.45-0.854,0.675-1.842,0.675-2.967c0-1.124-0.225-2.117-0.675-2.979
		c-0.449-0.862-1.073-1.522-1.869-1.981c-0.797-0.459-1.701-0.689-2.713-0.689C808.935,120.6,807.674,121.102,806.728,122.104z"/>
	<path fill="#081F25" d="M823.553,112.855c0.318-0.291,0.74-0.436,1.266-0.436c0.524,0,0.945,0.145,1.265,0.436
		c0.318,0.291,0.478,0.67,0.478,1.139s-0.159,0.848-0.478,1.139c-0.319,0.29-0.74,0.436-1.265,0.436
		c-0.525,0-0.947-0.146-1.266-0.436c-0.318-0.291-0.478-0.67-0.478-1.139S823.234,113.146,823.553,112.855z M826.083,118.52v15.434
		h-2.559V118.52H826.083z"/>
	<path fill="#081F25" d="M845.396,126.785h-12.342c0.057,1.762,0.558,3.082,1.504,3.963s2.104,1.322,3.472,1.322
		c1.237,0,2.272-0.314,3.106-0.942s1.345-1.466,1.532-2.517h2.728c-0.188,1.068-0.604,2.024-1.251,2.868
		c-0.647,0.843-1.486,1.499-2.517,1.968c-1.031,0.469-2.192,0.703-3.485,0.703c-1.481,0-2.793-0.318-3.937-0.956
		c-1.143-0.638-2.038-1.551-2.685-2.741c-0.646-1.189-0.97-2.591-0.97-4.203c0-1.611,0.323-3.017,0.97-4.217
		c0.646-1.199,1.542-2.117,2.685-2.754c1.144-0.638,2.455-0.957,3.937-0.957c1.499,0,2.806,0.319,3.921,0.957
		c1.115,0.637,1.968,1.489,2.559,2.558c0.59,1.068,0.886,2.249,0.886,3.542C845.509,125.923,845.471,126.391,845.396,126.785z
		 M842.36,122.68c-0.432-0.768-1.022-1.34-1.771-1.715c-0.75-0.374-1.565-0.562-2.445-0.562c-1.406,0-2.587,0.436-3.543,1.308
		c-0.955,0.871-1.471,2.15-1.546,3.837h9.867C842.979,124.404,842.791,123.449,842.36,122.68z"/>
</g>
<g>
	<path fill="#081F25" d="M66.408,50.308v83.355H49.761V50.308H66.408z"/>
	<path fill="#081F25" d="M102.891,63.531v21.606h29.517v12.751h-29.517v22.433h33.059v13.342H86.243V50.308h49.706v13.224H102.891z"
		/>
	<path fill="#081F25" d="M216.47,57.51c6.849,5.354,11.374,12.634,13.578,21.843h-17.474c-1.812-4.486-4.625-8.029-8.442-10.627
		c-3.818-2.598-8.403-3.896-13.755-3.896c-4.409,0-8.383,1.104-11.925,3.307c-3.542,2.205-6.298,5.354-8.265,9.445
		c-1.968,4.094-2.951,8.896-2.951,14.404c0,5.432,0.983,10.194,2.951,14.286c1.967,4.094,4.723,7.243,8.265,9.445
		c3.542,2.204,7.516,3.306,11.925,3.306c5.352,0,9.937-1.299,13.755-3.896c3.817-2.598,6.631-6.139,8.442-10.625h17.474
		c-2.204,9.209-6.729,16.49-13.578,21.842c-6.848,5.354-15.467,8.029-25.856,8.029c-7.951,0-14.976-1.79-21.075-5.373
		c-6.101-3.58-10.823-8.598-14.168-15.053c-3.347-6.453-5.018-13.773-5.018-21.961c0-8.265,1.671-15.623,5.018-22.078
		c3.345-6.453,8.047-11.472,14.109-15.055c6.06-3.58,13.105-5.371,21.134-5.371C201.003,49.481,209.622,52.157,216.47,57.51z"/>
	<path fill="#081F25" d="M305.905,97.829c3.029,3.74,4.546,8.129,4.546,13.165c0,7.007-2.343,12.536-7.025,16.589
		c-4.684,4.055-11.473,6.08-20.366,6.08h-35.774V50.308h35.065c8.422,0,14.896,1.85,19.422,5.549
		c4.525,3.701,6.789,8.896,6.789,15.585c0,5.195-1.357,9.446-4.073,12.751c-2.716,3.307-6.277,5.473-10.685,6.494
		C298.84,91.71,302.874,94.093,305.905,97.829z M263.933,85.255h14.994c4.171,0,7.339-0.924,9.505-2.773
		c2.164-1.85,3.246-4.506,3.246-7.971c0-3.462-1.063-6.139-3.188-8.027c-2.125-1.89-5.393-2.834-9.8-2.834h-14.758V85.255z
		 M289.907,117.192c2.361-1.928,3.542-4.74,3.542-8.441c0-3.699-1.201-6.553-3.602-8.561c-2.401-2.006-5.805-3.01-10.212-3.01
		h-15.703v22.904h15.82C284.16,120.085,287.546,119.122,289.907,117.192z"/>
</g>
<g>
	<path fill="#92117D" d="M360.394,0v133.129h-16.647V0H360.394z"/>
	<path fill="#F47920" d="M388.03,0v133.129h-16.648V0H388.03z"/>
	<path fill="#8DC63F" d="M415.666,0v133.129h-16.647V0H415.666z"/>
	<path fill="#ED1C24" d="M443.302,0v133.129h-16.647V0H443.302z"/>
	<path fill="#0072BC" d="M470.938,0v133.129H454.29V0H470.938z"/>
	<path fill="#FFC709" d="M498.574,0v133.129h-16.647V0H498.574z"/>
</g>
</svg>
